<?xml version="1.0" encoding="UTF-8"?>
<svg id="Layer_1" data-name="Layer 1" xmlns="http://www.w3.org/2000/svg" version="1.1" viewBox="0 0 960 1450">
  <defs>
    <style>
      .cls-1 {
        fill: #000;
        stroke-width: 0px;
      }
    </style>
  </defs>
  <g>
    <g>
      <path class="cls-1" d="M50.46,514.062l2.976.624-7.44,33.987-2.928-.624,7.393-33.987ZM58.045,538.063h-8.064v-3.024h8.064v3.024ZM57.565,514.062l7.393,33.987-2.928.624-7.44-33.987,2.976-.624Z"/>
      <path class="cls-1" d="M156.31,531.343v16.801h-3.024v-9.793c-2.688,6.097-8.785,10.321-15.842,10.321-9.553,0-17.377-7.92-17.377-17.617s7.825-17.042,17.377-17.042,17.33,7.776,17.33,17.33h1.536ZM151.702,531.343c0-7.777-6.384-14.257-14.257-14.257s-14.257,6.48-14.257,14.257c0,7.873,6.384,14.257,14.257,14.257s14.257-6.384,14.257-14.257Z"/>
      <path class="cls-1" d="M217.635,514.542h3.024v33.603h-3.024v-33.603ZM231.94,539.024c0,4.992-4.081,9.121-9.121,9.121v-3.024c3.312,0,6.097-2.784,6.097-6.096s-2.784-6.097-6.097-6.097v-3.12c3.312,0,6.097-2.785,6.097-6.097s-2.784-6.097-6.097-6.097v-3.072c5.041,0,9.121,4.128,9.121,9.169,0,3.168-1.632,6-4.128,7.633,2.496,1.632,4.128,4.464,4.128,7.681Z"/>
      <path class="cls-1" d="M311.412,548.672c-4.464,0-8.929-1.776-12.289-5.136-6.625-6.672-6.625-17.762,0-24.386,6.769-6.816,17.714-6.816,24.434,0l-2.208,2.16c-5.521-5.472-14.449-5.472-20.018,0-5.472,5.569-5.472,14.449,0,19.97,5.568,5.521,14.497,5.521,20.018,0l2.208,2.256c-3.359,3.36-7.776,5.136-12.145,5.136Z"/>
      <path class="cls-1" d="M387.042,548.145h-3.024v-33.603h3.024v33.603ZM389.203,548.145v-3.12c7.584,0,13.729-6.145,13.729-13.681s-6.145-13.681-13.729-13.681v-3.121c9.265,0,16.801,7.585,16.801,16.802s-7.536,16.801-16.801,16.801Z"/>
      <path class="cls-1" d="M476.402,527.022h10.224v3.024h-10.224v18.098h-3.024v-33.603h3.024v12.481ZM486.626,514.542v3.024h-8.064v-3.024h8.064ZM478.562,545.12h8.064v3.024h-8.064v-3.024Z"/>
      <path class="cls-1" d="M561.513,527.022h10.225v3.024h-10.225v18.098h-3.024v-33.603h3.024v12.481ZM571.737,514.542v3.024h-8.064v-3.024h8.064Z"/>
      <path class="cls-1" d="M651.041,548.672c-4.464,0-8.929-1.776-12.289-5.136-6.624-6.672-6.624-17.762,0-24.386,6.769-6.816,17.714-6.816,24.435,0l-2.208,2.16c-5.521-5.472-14.449-5.472-20.018,0-5.473,5.569-5.473,14.449,0,19.97,5.568,5.521,14.497,5.521,20.018,0l2.208,2.256c-3.36,3.36-7.776,5.136-12.146,5.136ZM664.771,540.176h-18.529v-3.024h18.529v3.024Z"/>
      <path class="cls-1" d="M728.088,548.145h-3.024v-33.603h3.024v33.603ZM738.408,532.879h-8.16v-3.024h8.16v3.024ZM743.593,548.145h-3.024v-33.603h3.024v33.603Z"/>
      <path class="cls-1" d="M828.632,517.566h-18.529v-3.024h18.529v3.024ZM828.632,548.145h-18.529v-3.024h18.529v3.024ZM820.759,542.96h-3.023v-23.522h3.023v23.522Z"/>
      <path class="cls-1" d="M912.279,514.542v24.818c0,5.088-4.08,9.217-9.169,9.217s-9.169-4.128-9.169-9.217h3.024c0,3.408,2.784,6.145,6.145,6.145s6.145-2.736,6.145-6.145v-24.818h3.024ZM906.519,517.566h-8.641v-3.024h8.641v3.024Z"/>
      <path class="cls-1" d="M47.917,633.184h-2.976v-33.603h2.976v33.603ZM66.158,631.888l-2.353,1.824-14.113-18.337,2.352-1.824,14.113,18.338ZM61.79,598.477l2.064,2.112-11.953,11.569-2.064-2.112,11.953-11.569Z"/>
      <path class="cls-1" d="M136.748,599.581v33.603h-3.024v-33.603h3.024ZM146.973,630.16v3.024h-8.065v-3.024h8.065Z"/>
      <path class="cls-1" d="M206.882,633.712l-3.168-.528,5.665-33.555,3.12.528-5.617,33.555ZM220.804,633.712l-7.249-33.843,2.928-.624,7.296,33.843-2.976.624ZM227.908,633.712l-2.976-.624,7.296-33.939,2.928.625-7.249,33.938ZM241.301,633.664l-5.088-33.555,3.168-.432,5.088,33.507-3.168.48Z"/>
      <path class="cls-1" d="M297.082,599.581v33.603h-3.024v-33.603h3.024ZM305.627,633.712l-7.393-34.131,2.928-.624,7.44,34.131-2.976.624ZM312.732,633.712l-2.977-.624,7.44-34.131,2.929.624-7.393,34.131ZM324.205,599.581v33.603h-3.024v-33.603h3.024Z"/>
      <path class="cls-1" d="M383.778,633.184v-33.603h3.024v33.603h-3.024ZM397.555,629.104l-9.745-24.722,2.832-1.104,9.793,24.674-2.88,1.152ZM401.54,633.184v-33.603h3.023v33.603h-3.023Z"/>
      <path class="cls-1" d="M479.235,633.712c-9.553,0-17.378-7.92-17.378-17.617s7.825-17.042,17.378-17.042,17.329,7.776,17.329,17.33-7.776,17.329-17.329,17.329ZM479.235,602.125c-7.873,0-14.258,6.48-14.258,14.257,0,7.873,6.385,14.257,14.258,14.257s14.256-6.384,14.256-14.257c0-7.777-6.385-14.257-14.256-14.257Z"/>
      <path class="cls-1" d="M560.961,633.184h-3.024v-33.603h3.024v33.603ZM563.121,617.871v-3.024c3.312,0,6.097-2.784,6.097-6.097s-2.785-6.097-6.097-6.097v-3.072c5.04,0,9.12,4.128,9.12,9.169,0,4.992-4.08,9.121-9.12,9.121Z"/>
      <path class="cls-1" d="M664.505,634.048l-4.08-4.417c-3.024,2.544-6.912,4.08-11.137,4.08-9.553,0-17.378-7.92-17.378-17.617s7.825-17.042,17.378-17.042,17.329,7.776,17.329,17.33c0,4.272-1.536,8.161-4.08,11.185l4.128,4.465-2.16,2.016ZM658.312,627.424l-6.336-6.865,2.16-2.016,6.288,6.769c1.969-2.448,3.12-5.568,3.12-8.929,0-7.777-6.384-14.257-14.257-14.257s-14.258,6.48-14.258,14.257c0,7.873,6.385,14.257,14.258,14.257,3.456,0,6.576-1.2,9.024-3.216Z"/>
      <path class="cls-1" d="M727.751,633.184v-33.603h3.024v33.603h-3.024ZM741.576,633.712l-9.985-12.433,2.4-1.968,9.985,12.481-2.4,1.92ZM732.791,617.919v-3.072c3.312,0,6.049-2.736,6.049-6.097,0-3.312-2.736-6.048-6.049-6.048v-3.121c5.041,0,9.169,4.128,9.169,9.169,0,5.088-4.128,9.169-9.169,9.169Z"/>
      <path class="cls-1" d="M814.351,615.086v18.098h-3.024v-24.914c0-4.993,4.032-9.073,9.024-9.073,5.089,0,9.169,4.08,9.169,9.073,0,5.041-4.032,9.121-9.121,9.121-2.304,0-4.464-.864-6.048-2.304ZM814.351,608.27c0,3.36,2.784,6.096,6.048,6.096,3.36,0,6.097-2.736,6.097-6.096,0-3.312-2.736-6.049-6.097-6.049-3.264,0-6.048,2.736-6.048,6.049ZM830.479,632.032l-2.16,2.016-12.529-13.489,2.16-2.016,12.529,13.489Z"/>
      <path class="cls-1" d="M913.887,624.303c0,5.185-4.272,9.409-9.457,9.409s-9.408-4.224-9.408-9.409h3.023c0,3.504,2.881,6.385,6.385,6.385s6.385-2.88,6.385-6.385c0-3.552-2.88-6.384-6.385-6.384-5.185,0-9.408-4.225-9.408-9.409s4.224-9.457,9.408-9.457c5.232,0,9.457,4.272,9.457,9.457h-3.072c0-3.504-2.88-6.384-6.385-6.384-3.456,0-6.385,2.88-6.385,6.384s2.929,6.337,6.385,6.337c5.185,0,9.457,4.272,9.457,9.457Z"/>
      <path class="cls-1" d="M63.277,687.645h-18.529v-3.024h18.529v3.024ZM55.549,718.223h-3.024v-28.418h3.024v28.418Z"/>
      <path class="cls-1" d="M150.549,709.438v8.785h-3.024v-7.825c-.48,4.656-4.369,8.257-9.121,8.257-5.088,0-9.168-4.128-9.168-9.217v-24.818h3.024v24.818c0,3.408,2.784,6.145,6.145,6.145s6.145-2.736,6.145-6.145v-24.818h3.024v24.818h2.976Z"/>
      <path class="cls-1" d="M220.54,718.751l-7.393-34.611,2.928-.624,7.44,34.611-2.976.624ZM227.644,718.751l-2.976-.624,7.44-34.611,2.928.624-7.393,34.611Z"/>
      <path class="cls-1" d="M291.922,684.092l5.617,33.651-3.12.528-5.665-33.651,3.168-.528ZM305.843,684.092l2.976.624-7.296,33.555-2.928-.624,7.249-33.555ZM312.948,684.092l7.249,33.651-2.929.624-7.296-33.651,2.976-.624ZM326.341,684.14l3.168.48-5.089,33.603-3.168-.432,5.089-33.651Z"/>
      <path class="cls-1" d="M386.585,718.703l-2.688-1.392,17.57-33.267,2.688,1.44-17.569,33.219ZM390.234,697.533l-6.337-12.049,2.688-1.44,6.337,12.049-2.688,1.44ZM401.803,718.703l-6.577-12.049,2.736-1.44,6.48,12.097-2.64,1.392Z"/>
      <path class="cls-1" d="M480.481,700.03l-11.953-13.874,2.353-2.064,11.953,13.921-2.352,2.017ZM487.297,684.62v24.818c0,5.088-4.08,9.217-9.167,9.217s-9.169-4.128-9.169-9.217h3.024c0,3.408,2.784,6.145,6.145,6.145s6.144-2.736,6.144-6.145v-24.818h3.023Z"/>
      <path class="cls-1" d="M556.231,718.703l-2.832-1.728,18.817-32.931,2.88,1.68-18.865,32.979ZM569.049,687.645h-13.537v-3.024h13.537v3.024ZM573.081,718.223h-13.489v-3.024h13.489v3.024Z"/>
      <path class="cls-1" d="M656.08,691.101c0,3.504-2.881,6.385-6.433,6.385-2.112,0-3.984-1.056-5.137-2.64-.72.384-1.584.672-2.641.768l-.048-.672c.912-.096,1.681-.336,2.305-.672-.528-.912-.864-2.016-.864-3.168,0-3.552,2.88-6.432,6.385-6.432,3.552,0,6.433,2.88,6.433,6.432ZM655.359,691.101c0-3.168-2.544-5.712-5.712-5.712-3.12,0-5.665,2.544-5.665,5.712,0,.672.097,1.296.336,1.873.721-1.536,2.929-5.761,5.377-6.385l-.624-.336.336-.576,2.16,1.104c1.776.864,2.496,3.408,2.496,3.552l-.384.432-2.496-.384.048.288c.24.912-.048,1.92-.672,2.592-.145.144-.336.288-.528.432l1.92,2.592c2.017-.864,3.408-2.88,3.408-5.185ZM649.647,696.765c.576,0,1.104-.096,1.584-.24l-1.824-2.496c-.288.096-.624.144-.96.144h-.384l.096-.672c.288.048.576,0,.864-.048l-.433-.576.576-.384.48.624c.144-.096.288-.192.432-.336.48-.528.672-1.248.48-1.968l-.145-.72.385-.432,2.448.336c-.288-.768-.961-2.16-2.064-2.64h-.048c-.24-.144-.528-.192-.816-.192-2.256,0-4.849,4.8-5.664,6.625l.096.144c1.68-1.2,2.256-2.928,2.256-2.976l.672.24c-.048.048-.672,1.968-2.592,3.264.528.672,1.152,1.248,1.872,1.632v-3.408h.72v3.744c.624.192,1.297.336,1.969.336ZM649.791,688.365c0-.336.288-.576.624-.576s.576.24.576.576-.24.624-.576.624-.624-.288-.624-.624Z"/>
      <path class="cls-1" d="M50.46,769.18l2.976.624-7.44,33.987-2.928-.624,7.393-33.987ZM58.045,793.182h-8.064v-3.024h8.064v3.024ZM57.565,769.18l7.393,33.987-2.928.624-7.44-33.987,2.976-.624Z"/>
      <path class="cls-1" d="M156.31,786.461v16.801h-3.024v-9.793c-2.688,6.097-8.785,10.321-15.842,10.321-9.553,0-17.377-7.92-17.377-17.617s7.825-17.042,17.377-17.042,17.33,7.776,17.33,17.33h1.536ZM151.702,786.461c0-7.777-6.384-14.257-14.257-14.257s-14.257,6.48-14.257,14.257c0,7.873,6.384,14.257,14.257,14.257s14.257-6.384,14.257-14.257Z"/>
      <path class="cls-1" d="M220.803,803.263h-3.024v-33.603h3.024v33.603ZM231.028,772.684h-8.065v-3.024h8.065v3.024ZM222.963,803.263v-3.024c3.312,0,6.097-2.784,6.097-6.096s-2.784-6.097-6.097-6.097v-3.072c5.041,0,9.121,4.128,9.121,9.169,0,4.992-4.081,9.121-9.121,9.121Z"/>
      <path class="cls-1" d="M302.674,769.66h3.024v33.603h-3.024v-33.603ZM316.979,794.142c0,4.992-4.08,9.121-9.121,9.121v-3.024c3.312,0,6.097-2.784,6.097-6.096s-2.784-6.097-6.097-6.097v-3.12c3.312,0,6.097-2.785,6.097-6.097s-2.784-6.097-6.097-6.097v-3.072c5.041,0,9.121,4.128,9.121,9.169,0,3.168-1.632,6-4.129,7.633,2.497,1.632,4.129,4.464,4.129,7.681Z"/>
      <path class="cls-1" d="M391.89,803.263h-3.024v-33.603h3.024v33.603ZM402.115,772.684h-8.064v-3.024h8.064v3.024Z"/>
      <path class="cls-1" d="M490.85,809.743h-3.024v-6.48h-18.145v6.48h-3.024v-9.505h24.194v9.505ZM472.512,798.366l-2.832-1.104,10.993-27.603,2.832,1.104-10.993,27.603ZM487.825,798.078h-3.024v-28.418h3.024v28.418Z"/>
      <path class="cls-1" d="M561.44,782.141h10.225v3.024h-10.225v18.098h-3.024v-33.603h3.024v12.481ZM571.665,769.66v3.024h-8.064v-3.024h8.064ZM563.601,800.238h8.064v3.024h-8.064v-3.024Z"/>
      <path class="cls-1" d="M646.552,782.141h10.225v3.024h-10.225v18.098h-3.024v-33.603h3.024v12.481ZM644.967,764.859c0-.864.721-1.68,1.681-1.68.864,0,1.729.816,1.68,1.68-.048.96-.815,1.68-1.68,1.68-.96,0-1.681-.72-1.681-1.68ZM656.776,769.66v3.024h-8.064v-3.024h8.064ZM648.712,800.238h8.064v3.024h-8.064v-3.024ZM651.16,764.859c.048-.864.768-1.68,1.728-1.68.864,0,1.584.816,1.633,1.68.048.96-.769,1.68-1.633,1.68-.96,0-1.776-.72-1.728-1.68Z"/>
      <path class="cls-1" d="M716.95,802.207l11.665-18.386,2.496,1.584-11.665,18.385-2.496-1.584ZM722.183,769.132l8.881,11.425-2.353,1.824-8.881-11.473,2.353-1.776ZM735.815,803.263h-2.977v-33.603h2.977v33.603ZM751.705,802.207l-2.496,1.584-11.665-18.385,2.496-1.584,11.665,18.386ZM746.473,769.132l2.353,1.776-8.881,11.473-2.353-1.824,8.881-11.425Z"/>
      <path class="cls-1" d="M828.847,794.382c0,5.185-4.272,9.409-9.457,9.409s-9.408-4.224-9.408-9.409h3.023c0,3.504,2.881,6.385,6.385,6.385s6.385-2.88,6.385-6.385c0-3.552-2.88-6.384-6.385-6.384v-3.072c3.505,0,6.385-2.88,6.385-6.385,0-3.456-2.88-6.384-6.385-6.384s-6.385,2.928-6.385,6.384h-3.023c0-5.185,4.224-9.409,9.408-9.409s9.457,4.224,9.457,9.409c0,3.312-1.729,6.241-4.32,7.921,2.592,1.68,4.32,4.608,4.32,7.92Z"/>
      <path class="cls-1" d="M897.037,803.263h-3.024v-33.603h3.024v33.603ZM901.021,799.182l-2.881-1.152,9.793-24.674,2.832,1.104-9.744,24.722ZM914.798,803.263h-3.023v-33.603h3.023v33.603Z"/>
      <path class="cls-1" d="M46.644,888.302h-3.024v-33.603h3.024v33.603ZM53.941,853.354c-5.088,0-9.169-4.128-9.169-9.217h3.024c0,3.409,2.784,6.145,6.145,6.145s6.145-2.736,6.145-6.145h3.024c0,5.089-4.08,9.217-9.168,9.217ZM50.628,884.221l-2.88-1.152,9.793-24.674,2.833,1.104-9.745,24.722ZM64.406,888.302h-3.024v-33.603h3.024v33.603Z"/>
      <path class="cls-1" d="M132.956,888.302h-2.976v-33.603h2.976v33.603ZM151.198,887.006l-2.353,1.824-14.113-18.337,2.353-1.824,14.113,18.338ZM146.829,853.595l2.064,2.112-11.953,11.569-2.064-2.112,11.953-11.569Z"/>
      <path class="cls-1" d="M214.467,888.878l-2.832-1.152,13.969-33.603,2.88,1.2-14.017,33.555ZM233.477,888.302h-3.024v-33.603h3.024v33.603Z"/>
      <path class="cls-1" d="M297.083,854.699v33.603h-3.024v-33.603h3.024ZM305.627,888.83l-7.393-34.131,2.928-.624,7.44,34.131-2.976.624ZM312.732,888.83l-2.976-.624,7.441-34.131,2.928.624-7.393,34.131ZM324.205,854.699v33.603h-3.023v-33.603h3.023Z"/>
      <path class="cls-1" d="M376.962,888.83l-3.169-.528,5.665-33.555,3.12.528-5.616,33.555ZM390.883,888.83l-7.249-33.843,2.929-.624,7.297,33.843-2.977.624ZM397.988,888.83l-2.977-.624,7.297-33.939,2.929.624-7.249,33.939ZM411.381,888.782l-5.089-33.555,3.168-.432,5.089,33.507-3.168.48Z"/>
      <path class="cls-1" d="M472.97,888.302h-3.024v-33.603h3.024v33.603ZM483.29,873.037h-8.16v-3.024h8.16v3.024ZM488.475,888.302h-3.024v-33.603h3.024v33.603Z"/>
      <path class="cls-1" d="M564.273,888.83c-9.553,0-17.378-7.92-17.378-17.617s7.825-17.042,17.378-17.042,17.329,7.776,17.329,17.33-7.776,17.329-17.329,17.329ZM564.273,857.243c-7.873,0-14.258,6.48-14.258,14.257,0,7.873,6.385,14.257,14.258,14.257s14.257-6.384,14.257-14.257c0-7.777-6.385-14.257-14.257-14.257Z"/>
      <path class="cls-1" d="M658.553,857.723h-18.529v-3.024h18.529v3.024ZM643.048,888.302h-3.024v-28.418h3.024v28.418ZM658.553,888.302h-3.024v-28.418h3.024v28.418Z"/>
      <path class="cls-1" d="M731.039,888.302h-3.024v-33.603h3.024v33.603ZM733.199,872.988v-3.024c3.312,0,6.097-2.785,6.097-6.097s-2.785-6.097-6.097-6.097v-3.072c5.04,0,9.12,4.128,9.12,9.169,0,4.992-4.08,9.121-9.12,9.121Z"/>
      <path class="cls-1" d="M821.646,888.83c-4.464,0-8.929-1.776-12.289-5.136-6.624-6.672-6.624-17.762,0-24.386,6.769-6.816,17.714-6.816,24.435,0l-2.208,2.16c-5.521-5.472-14.449-5.472-20.018,0-5.473,5.569-5.473,14.449,0,19.97,5.568,5.521,14.497,5.521,20.018,0l2.208,2.256c-3.36,3.36-7.776,5.136-12.146,5.136Z"/>
      <path class="cls-1" d="M913.671,857.723h-18.53v-3.024h18.53v3.024ZM905.942,888.302h-3.024v-28.418h3.024v28.418Z"/>
      <path class="cls-1" d="M55.285,955.148l-11.953-13.874,2.352-2.064,11.953,13.921-2.353,2.017ZM62.102,939.739v24.818c0,5.089-4.081,9.217-9.169,9.217s-9.168-4.128-9.168-9.217h3.024c0,3.409,2.784,6.145,6.145,6.145s6.145-2.735,6.145-6.145v-24.818h3.024Z"/>
      <path class="cls-1" d="M135.405,969.646c-7.297,0-13.201-5.856-13.201-13.105,0-7.297,5.904-13.153,13.201-13.153v3.024c-5.569,0-10.129,4.56-10.129,10.129s4.56,10.081,10.129,10.081v3.024ZM140.589,973.342h-3.024v-33.603h3.024v33.603ZM142.749,969.646v-3.024c5.569,0,10.129-4.513,10.129-10.081s-4.56-10.129-10.129-10.129v-3.024c7.249,0,13.153,5.856,13.153,13.153,0,7.249-5.904,13.105-13.153,13.105Z"/>
      <path class="cls-1" d="M216.507,973.822l-2.688-1.393,17.569-33.267,2.688,1.44-17.57,33.219ZM220.155,952.652l-6.336-12.049,2.688-1.44,6.336,12.049-2.688,1.44ZM231.724,973.822l-6.577-12.05,2.736-1.439,6.48,12.097-2.64,1.393Z"/>
      <path class="cls-1" d="M320.724,964.557v15.266h-3.024v-14.305c-.48,4.656-4.368,8.256-9.121,8.256-5.088,0-9.168-4.128-9.168-9.217v-24.818h3.024v24.818c0,3.409,2.784,6.145,6.145,6.145s6.145-2.735,6.145-6.145v-24.818h3.024v24.818h2.977Z"/>
      <path class="cls-1" d="M394.075,958.028h4.176v3.024h-4.176c-5.041,0-9.169-4.081-9.169-9.121v-12.145h3.024v12.145c0,3.36,2.832,6.096,6.145,6.096ZM403.435,939.739v33.603h-3.024v-33.603h3.024Z"/>
      <path class="cls-1" d="M468.914,968.157h-3.12v-28.418h3.12v28.418ZM492.579,973.342h-26.738v-3.024h26.738v3.024ZM480.626,968.157h-3.12v-28.418h3.12v28.418ZM492.627,968.157h-3.12v-28.418h3.12v28.418Z"/>
      <path class="cls-1" d="M552.561,968.157h-3.12v-28.418h3.12v28.418ZM580.739,973.342h-31.251v-3.024h31.251v3.024ZM564.273,968.157h-3.12v-28.418h3.12v28.418ZM576.274,968.157h-3.12v-28.418h3.12v28.418ZM580.739,979.822h-3.024v-4.32h3.024v4.32Z"/>
      <path class="cls-1" d="M643.863,942.763h-6.865v-3.024h6.865v3.024ZM649.096,973.342h-3.024v-33.603h3.024v33.603ZM651.256,973.342v-3.024c3.312,0,6.097-2.784,6.097-6.097s-2.784-6.096-6.097-6.096v-3.072c5.04,0,9.12,4.128,9.12,9.168,0,4.993-4.08,9.121-9.12,9.121Z"/>
      <path class="cls-1" d="M727.175,973.342h-3.024v-33.603h3.024v33.603ZM729.335,973.342v-3.024c3.312,0,6.096-2.784,6.096-6.097s-2.784-6.096-6.096-6.096v-3.072c5.04,0,9.12,4.128,9.12,9.168,0,4.993-4.08,9.121-9.12,9.121ZM744.504,973.342h-3.024v-33.603h3.024v33.603Z"/>
      <path class="cls-1" d="M815.934,973.342h-3.024v-33.603h3.024v33.603ZM818.094,973.342v-3.024c3.312,0,6.097-2.784,6.097-6.097s-2.785-6.096-6.097-6.096v-3.072c5.04,0,9.12,4.128,9.12,9.168,0,4.993-4.08,9.121-9.12,9.121Z"/>
      <path class="cls-1" d="M902.103,973.87c-4.369,0-8.785-1.776-12.146-5.137l2.208-2.256c5.521,5.521,14.449,5.521,20.018,0,5.473-5.521,5.473-14.401,0-19.97-5.568-5.472-14.497-5.472-20.018,0l-2.208-2.16c6.721-6.816,17.666-6.816,24.435,0,6.624,6.625,6.624,17.713,0,24.386-3.36,3.36-7.825,5.137-12.289,5.137ZM914.199,957.884h-11.041v-3.024h11.041v3.024Z"/>
      <path class="cls-1" d="M35.076,1058.381h-3.024v-33.603h3.024v33.603ZM41.701,1043.115h-5.424v-3.024h5.424v3.024ZM60.327,1058.909c-9.553,0-17.378-7.921-17.378-17.618s7.825-17.041,17.378-17.041,17.329,7.776,17.329,17.329-7.776,17.33-17.329,17.33ZM60.327,1027.322c-7.873,0-14.257,6.48-14.257,14.257,0,7.873,6.384,14.258,14.257,14.258s14.257-6.385,14.257-14.258c0-7.776-6.384-14.257-14.257-14.257Z"/>
      <path class="cls-1" d="M140.468,1043.739l2.16,2.017-12.529,13.489-2.16-2.017,12.529-13.489ZM147.093,1033.467v24.914h-3.024v-18.098c-1.584,1.44-3.745,2.305-6.049,2.305-5.088,0-9.121-4.081-9.121-9.121,0-4.992,4.08-9.073,9.168-9.073,4.993,0,9.025,4.081,9.025,9.073ZM144.069,1033.467c0-3.312-2.785-6.049-6.049-6.049-3.36,0-6.097,2.736-6.097,6.049,0,3.36,2.736,6.097,6.097,6.097,3.264,0,6.049-2.736,6.049-6.097Z"/>
      <path class="cls-1" d="M216.843,1058.909l-2.4-1.921,9.985-12.48,2.4,1.968-9.985,12.434ZM225.627,1043.115c-5.04,0-9.168-4.08-9.168-9.169,0-5.04,4.128-9.168,9.168-9.168v3.12c-3.312,0-6.048,2.736-6.048,6.048,0,3.36,2.736,6.097,6.048,6.097v3.072ZM230.668,1058.381h-3.024v-33.603h3.024v33.603Z"/>
      <path class="cls-1" d="M63.061,1118.313v16.466c0,4.992-4.032,9.024-9.073,9.024-4.944,0-9.024-4.032-9.024-9.024v-16.466c0-4.944,4.08-9.024,9.024-9.024,5.041,0,9.073,4.08,9.073,9.024ZM60.037,1118.313c0-3.264-2.736-5.952-6.049-5.952-3.264,0-5.952,2.688-5.952,5.952v16.466c0,3.312,2.688,6.049,5.952,6.049,3.312,0,6.049-2.736,6.049-6.049v-16.466Z"/>
      <path class="cls-1" d="M129.235,1122.586v-3.024c5.328,0,9.745-4.416,9.745-9.744h3.024c0,7.057-5.712,12.769-12.769,12.769ZM149.781,1143.42h-18.625v-3.024h18.625v3.024ZM141.812,1138.188h-3.072v-18.002h3.072v18.002Z"/>
      <path class="cls-1" d="M217.059,1139.243l-2.256-2.208,15.937-17.474,2.208,2.209-15.89,17.473ZM218.115,1118.458h-3.072c0-4.992,4.081-9.121,9.217-9.121,5.041,0,9.121,4.129,9.121,9.121h-3.072c0-3.408-2.736-6.049-6.049-6.049s-6.145,2.641-6.145,6.049ZM215.042,1140.396h18.338v3.024h-18.338v-3.024Z"/>
      <path class="cls-1" d="M309.179,1143.852c-5.232,0-9.457-4.224-9.457-9.408h3.024c0,3.456,2.928,6.336,6.433,6.336s6.384-2.88,6.384-6.336c0-3.505-2.88-6.48-6.384-6.48v-3.024c5.233,0,9.409,4.225,9.409,9.505,0,5.185-4.176,9.408-9.409,9.408ZM318.828,1112.89h-17.618v-3.072h17.618v3.072ZM305.723,1126.57l-2.208-2.16,10.897-10.561,2.111,2.208-10.8,10.513Z"/>
      <path class="cls-1" d="M395.827,1110.249l2.16,2.112-12.625,14.161-2.209-2.112,12.674-14.161ZM383.345,1127.242h13.537v2.977h-13.537v-2.977ZM404.275,1130.219h-2.688v13.201h-3.072v-33.603h3.072v17.425h2.688v2.977Z"/>
      <path class="cls-1" d="M479.088,1143.948c-5.232,0-9.457-4.225-9.457-9.457h3.024c0,3.553,2.881,6.433,6.433,6.433s6.432-2.88,6.432-6.433c0-3.504-2.88-6.433-6.432-6.433h-2.544v-3.024h2.544c5.184,0,9.457,4.272,9.457,9.457,0,5.232-4.272,9.457-9.457,9.457ZM474.289,1128.202l-3.072-.432,2.111-13.394,3.024.433-2.063,13.393ZM488.785,1112.89h-15.409v-3.024h15.409v3.024Z"/>
      <path class="cls-1" d="M574.257,1133.963c0,5.521-4.368,9.889-9.841,9.889-5.521,0-9.889-4.368-9.889-9.889,0-1.68.433-3.264,1.152-4.656l.048-.096.096-.145,11.041-19.682,2.688,1.488-7.585,13.537c.769-.192,1.585-.288,2.448-.288,5.473,0,9.841,4.368,9.841,9.841ZM571.233,1133.963c0-3.648-3.121-6.816-6.817-6.816-3.744,0-6.864,3.168-6.864,6.816,0,3.744,3.12,6.865,6.864,6.865,3.696,0,6.817-3.121,6.817-6.865Z"/>
      <path class="cls-1" d="M658.576,1115.386l-17.378,28.418-2.496-1.584,7.345-12.001h-5.952v-3.024h7.824l8.161-13.297,2.496,1.488ZM659.44,1109.817v3.023h-19.346v-3.023h19.346ZM653.728,1127.194h5.713v3.024h-5.713v-3.024Z"/>
      <path class="cls-1" d="M743.736,1134.539c0,5.185-4.225,9.409-9.457,9.409-5.137,0-9.361-4.225-9.361-9.409,0-3.312,1.681-6.24,4.272-7.921-2.592-1.68-4.272-4.608-4.272-7.92,0-5.185,4.225-9.409,9.361-9.409,5.232,0,9.457,4.225,9.457,9.409,0,3.312-1.681,6.24-4.272,7.92,2.592,1.681,4.272,4.608,4.272,7.921ZM734.279,1125.082c3.552,0,6.433-2.88,6.433-6.384,0-3.457-2.881-6.337-6.433-6.337-3.456,0-6.337,2.88-6.337,6.337,0,3.504,2.881,6.384,6.337,6.384ZM740.712,1134.539c0-3.504-2.881-6.385-6.433-6.385-3.456,0-6.337,2.881-6.337,6.385,0,3.456,2.881,6.337,6.337,6.337,3.552,0,6.433-2.881,6.433-6.337Z"/>
      <path class="cls-1" d="M828.031,1124.026l-.097.144-11.041,19.682-2.688-1.487,7.584-13.537c-.768.191-1.584.287-2.448.287-5.472,0-9.841-4.368-9.841-9.841,0-5.521,4.369-9.889,9.841-9.889,5.521,0,9.89,4.368,9.89,9.889,0,1.681-.433,3.265-1.152,4.657l-.048.096ZM819.342,1126.091c3.745,0,6.865-3.169,6.865-6.817,0-3.744-3.12-6.864-6.865-6.864-3.696,0-6.816,3.12-6.816,6.864,0,3.648,3.12,6.817,6.816,6.817Z"/>
      <path class="cls-1" d="M51.828,1226.972c0-.96.816-1.824,1.873-1.824.96,0,1.872.864,1.824,1.824-.048,1.057-.864,1.824-1.824,1.824-1.056,0-1.873-.768-1.873-1.824Z"/>
      <path class="cls-1" d="M137.587,1233.692l-2.448-1.824,4.992-6.816,2.448,1.776-4.993,6.864Z"/>
      <path class="cls-1" d="M221.522,1214.971c0-1.2,1.008-2.304,2.352-2.304,1.2,0,2.352,1.104,2.304,2.304-.048,1.344-1.104,2.305-2.304,2.305-1.344,0-2.352-.961-2.352-2.305ZM221.522,1226.972c0-1.2,1.008-2.304,2.352-2.304,1.2,0,2.4,1.104,2.304,2.304-.048,1.345-1.104,2.305-2.304,2.305-1.344,0-2.352-.96-2.352-2.305Z"/>
      <path class="cls-1" d="M307.426,1233.692l-2.448-1.824,4.992-6.816,2.448,1.776-4.993,6.864ZM309.682,1217.803c1.2,0,2.256-.96,2.305-2.304.048-1.248-1.104-2.353-2.305-2.353-1.344,0-2.4,1.104-2.4,2.353,0,1.344,1.056,2.304,2.4,2.304Z"/>
      <path class="cls-1" d="M391.841,1226.972c0-1.2,1.009-2.304,2.353-2.304,1.2,0,2.4,1.104,2.304,2.304-.048,1.345-1.104,2.305-2.304,2.305-1.344,0-2.353-.96-2.353-2.305ZM395.73,1194.857h-3.024v26.882h3.024v-26.882Z"/>
      <path class="cls-1" d="M469.776,1203.786c0-5.185,4.225-9.457,9.457-9.457,5.184,0,9.409,4.272,9.409,9.457s-4.225,9.408-9.409,9.408v-3.072c3.456,0,6.384-2.832,6.384-6.336s-2.929-6.385-6.384-6.385c-3.504,0-6.385,2.88-6.385,6.385h-3.072ZM479.137,1229.276c1.2,0,2.255-.96,2.303-2.305.096-1.2-1.103-2.304-2.303-2.304-1.345,0-2.353,1.104-2.353,2.304,0,1.345,1.008,2.305,2.353,2.305Z"/>
      <path class="cls-1" d="M554.719,1203.642v-2.928c3.312,0,5.856-2.641,5.856-5.856h3.072c0,4.8-3.984,8.784-8.929,8.784ZM563.647,1213.915h-3.072c0-3.265-2.544-5.809-5.856-5.809v-3.072c4.944,0,8.929,3.937,8.929,8.881ZM573.776,1203.642c-4.752,0-8.736-3.984-8.736-8.784h2.928c0,3.216,2.641,5.856,5.809,5.856v2.928ZM567.968,1213.915h-2.928c0-4.944,3.984-8.881,8.736-8.881v3.072c-3.168,0-5.809,2.544-5.809,5.809Z"/>
      <path class="cls-1" d="M641.847,1228.94l-2.688-1.393,17.57-33.267,2.688,1.439-17.569,33.22Z"/>
      <path class="cls-1" d="M741.769,1228.94l-17.57-33.22,2.688-1.439,17.569,33.267-2.688,1.393Z"/>
      <path class="cls-1" d="M818.454,1199.657v29.475c0,3.217,2.593,5.809,5.761,5.809v3.024c-4.753,0-8.785-4.032-8.785-8.833v-29.475c0-4.944,4.032-8.881,8.785-8.881v3.024c-3.168,0-5.761,2.593-5.761,5.856Z"/>
      <path class="cls-1" d="M908.342,1199.657v29.475c0,4.801-4.032,8.833-8.785,8.833v-3.024c3.169,0,5.761-2.592,5.761-5.809v-29.475c0-3.264-2.592-5.856-5.761-5.856v-3.024c4.753,0,8.785,3.937,8.785,8.881Z"/>
      <path class="cls-1" d="M52.5,1322.428v-46.852h3.024v46.852h-3.024Z"/>
      <path class="cls-1" d="M147.237,1303.37c0,3.889-2.977,7.297-6.673,8.064v2.064h-3.024v-2.064c-3.696-.72-6.672-4.176-6.672-8.064h3.024c0,2.977,2.16,5.185,5.136,5.185s5.185-2.208,5.185-5.185-2.208-5.185-5.185-5.185c-4.368,0-8.161-3.744-8.161-8.112,0-3.889,2.976-7.345,6.672-8.113v-2.063h3.024v2.063c3.696.769,6.673,4.225,6.673,8.113h-3.024c0-2.977-2.208-5.232-5.185-5.232-2.928,0-5.136,2.256-5.136,5.232,0,2.928,2.208,5.136,5.136,5.136,4.369,0,8.209,3.793,8.209,8.161Z"/>
      <path class="cls-1" d="M233.957,1279.896v2.976c-7.633,0-13.825,6.241-13.825,13.873,0,7.681,6.192,13.874,13.825,13.874v3.023c-7.825,0-14.353-5.28-16.273-12.528h-3.456v-3.024h2.928c-.048-.433-.048-.912-.048-1.345s0-.912.048-1.344h-2.928v-2.977h3.456c1.872-7.2,8.449-12.528,16.273-12.528ZM222.532,1292.425h11.425v2.977h-11.425v-2.977ZM222.532,1298.09h11.425v3.024h-11.425v-3.024Z"/>
      <path class="cls-1" d="M304.763,1310.475h13.105v2.977l-18.961.048-.048-3.024h3.024v-11.041h-3.024v-3.024h3.024v-7.776c0-4.896,3.889-8.736,8.689-8.736,4.896,0,8.833,3.84,8.833,8.736h-3.024c0-3.168-2.544-5.761-5.808-5.761-3.12,0-5.809,2.593-5.809,5.761v21.842ZM307.115,1296.409h6.337v3.024h-6.337v-3.024Z"/>
      <path class="cls-1" d="M393.787,1301.93h7.729v3.024h-7.729v8.545h-3.023v-8.545h-5.761v-3.024h5.761v-3.744h-5.761v-3.024h5.761v-15.265h3.023v22.033ZM405.068,1289.064c0,4.993-4.08,9.121-9.121,9.121v-3.024c3.312,0,6.097-2.784,6.097-6.097s-2.784-6.096-6.097-6.096v-3.072c5.041,0,9.121,4.128,9.121,9.168Z"/>
      <path class="cls-1" d="M478.274,1287.961c0,4.608-3.84,8.448-8.448,8.448s-8.401-3.84-8.401-8.448c0-4.561,3.793-8.449,8.401-8.449s8.448,3.889,8.448,8.449ZM475.25,1287.961c0-3.024-2.4-5.425-5.424-5.425s-5.377,2.4-5.377,5.425c0,3.072,2.353,5.425,5.377,5.425s5.424-2.353,5.424-5.425ZM489.171,1280.76l-2.688-1.439-17.569,33.267,2.688,1.393,17.57-33.22ZM496.995,1305.53c0,4.608-3.84,8.449-8.448,8.449s-8.401-3.841-8.401-8.449c0-4.561,3.792-8.448,8.401-8.448s8.448,3.888,8.448,8.448ZM493.971,1305.53c0-3.024-2.4-5.425-5.424-5.425s-5.377,2.4-5.377,5.425c0,3.072,2.353,5.425,5.377,5.425s5.424-2.353,5.424-5.425Z"/>
      <path class="cls-1" d="M571.857,1306.25l6.049,5.041-1.969,2.352-6.097-5.088-2.447,2.736c-1.824,1.824-4.129,2.736-6.625,2.736-5.185,0-9.409-4.272-9.409-9.409,0-2.112.624-4.128,1.921-5.761l.815-1.056,2.4,1.92-.816,1.008c-.815,1.104-1.248,2.448-1.248,3.889,0,3.456,2.881,6.337,6.337,6.337,1.729,0,3.312-.624,4.464-1.824l.145-.145,2.112-2.399-13.249-11.09c-1.872-1.728-2.881-4.176-2.881-6.769,0-5.232,4.225-9.408,9.409-9.408,5.232,0,9.505,4.176,9.505,9.408,0,1.969-.528,3.696-1.632,5.281l-.433.575-3.024,3.696-2.352-1.872,3.312-4.176c.721-.96,1.057-2.257,1.057-3.505,0-3.456-2.88-6.384-6.433-6.384-3.456,0-6.337,2.928-6.337,6.384,0,1.824.673,3.36,1.969,4.608l13.153,10.945,6.24-7.057,2.256,1.968-6.192,7.057Z"/>
      <path class="cls-1" d="M627.808,1313.499v-33.603h3.024v33.603h-3.024ZM641.585,1309.419l-9.745-24.723,2.832-1.104,9.793,24.674-2.88,1.152ZM645.569,1313.499v-33.603h3.023v33.603h-3.023ZM661.314,1279.896c-5.232,0-9.457,4.272-9.457,9.456,0,5.232,4.225,9.457,9.457,9.457s9.457-4.225,9.457-9.457c0-5.184-4.225-9.456-9.457-9.456ZM653.058,1301.258v3.072h16.562v-3.072h-16.562ZM661.314,1295.689c-3.456,0-6.289-2.832-6.289-6.337,0-3.408,2.833-6.288,6.289-6.288,3.408,0,6.288,2.88,6.288,6.288,0,3.505-2.88,6.337-6.288,6.337Z"/>
      <path class="cls-1" d="M739.2,1301.642h-9.744v-3.023h9.744v3.023Z"/>
      <path class="cls-1" d="M826.64,1301.642h-14.545v-3.023h14.545v3.023Z"/>
      <path class="cls-1" d="M916.408,1301.642h-24.002v-3.023h24.002v3.023Z"/>
      <path class="cls-1" d="M61.285,1404.059h-14.545v-3.024h14.545v3.024Z"/>
      <path class="cls-1" d="M139.581,1394.746h-3.072c0-4.465-3.552-8.017-8.017-8.017v-3.024c4.464,0,8.017-3.648,8.017-7.969h3.072c0,3.984-2.208,7.536-5.473,9.457,3.264,1.92,5.473,5.472,5.473,9.553ZM149.613,1394.746h-3.072c0-4.465-3.552-8.017-8.017-8.017v-3.024c4.464,0,8.017-3.648,8.017-7.969h3.072c0,3.984-2.208,7.536-5.472,9.457,3.264,1.92,5.472,5.472,5.472,9.553Z"/>
      <path class="cls-1" d="M224.62,1386.729c-4.464,0-8.017,3.552-8.017,8.017h-3.072c0-4.081,2.208-7.633,5.472-9.553-3.264-1.921-5.472-5.473-5.472-9.457h3.072c0,4.32,3.552,7.969,8.017,7.969v3.024ZM234.652,1383.705v3.024c-4.464,0-8.017,3.552-8.017,8.017h-3.072c0-4.081,2.208-7.633,5.473-9.553-3.265-1.921-5.473-5.473-5.473-9.457h3.072c0,4.32,3.552,7.969,8.017,7.969Z"/>
      <path class="cls-1" d="M318.636,1372.952v3.072c-3.984,0-7.537-2.208-9.457-5.473-1.92,3.265-5.473,5.473-9.553,5.473v-3.072c4.464,0,8.017-3.553,8.017-8.017h3.024c0,4.464,3.648,8.017,7.969,8.017ZM307.643,1374.536h3.024v24.002h-3.024v-24.002Z"/>
      <path class="cls-1" d="M403.675,1387.449v3.072c-4.32,0-7.969,3.552-7.969,8.017h-3.024c0-4.465-3.552-8.017-8.017-8.017v-3.072c4.081,0,7.633,2.208,9.553,5.473,1.921-3.265,5.473-5.473,9.457-5.473ZM395.707,1388.938h-3.024v-24.002h3.024v24.002Z"/>
      <path class="cls-1" d="M486.41,1386.729h-24.001v-3.024h24.001v3.024ZM496.012,1383.705v3.024c-4.465,0-8.017,3.552-8.017,8.017h-3.072c0-4.081,2.208-7.633,5.472-9.553-3.264-1.921-5.472-5.473-5.472-9.457h3.072c0,4.32,3.552,7.969,8.017,7.969Z"/>
      <path class="cls-1" d="M558.536,1394.746h-3.072c0-4.465-3.552-8.017-8.017-8.017v-3.024c4.465,0,8.017-3.648,8.017-7.969h3.072c0,3.984-2.208,7.536-5.472,9.457,3.264,1.92,5.472,5.472,5.472,9.553ZM581.051,1383.705v3.024h-24.002v-3.024h24.002Z"/>
      <path class="cls-1" d="M655.672,1371.319c0,3.505-2.928,6.433-6.385,6.433-3.504,0-6.384-2.928-6.384-6.433,0-3.456,2.88-6.384,6.384-6.384,3.457,0,6.385,2.928,6.385,6.384ZM652.744,1371.319c0-1.92-1.536-3.456-3.457-3.456-1.968,0-3.456,1.536-3.456,3.456,0,2.017,1.488,3.505,3.456,3.505,1.921,0,3.457-1.488,3.457-3.505Z"/>
      <path class="cls-1" d="M734.183,1364.983c2.735,0,4.944,2.208,4.992,4.944l.144,23.666c0,2.784-2.16,4.944-4.944,4.944-2.64,0-4.896-2.16-4.896-4.944l-.144-23.666c-.048-2.736,2.208-4.944,4.849-4.944ZM732.982,1371.176l.527-.336-2.399-2.496-.433.384,2.305,2.448ZM731.014,1379.288l-.288.528,6.913,2.88.191-.624-6.816-2.784ZM732.694,1387.017c-1.104,0-1.872.816-1.729,1.824,0,1.057.769,1.824,1.824,1.824,1.008,0,1.872-.768,1.872-1.824,0-.432-.288-.912-.528-1.199h3.601v-.625h-5.04ZM730.966,1371.607v.576h6.769v-.576h-6.769ZM735.958,1372.952v.624h-4.992v.624h4.992c.673,0,1.248.576,1.248,1.2,0,.72-.575,1.344-1.248,1.344h-4.992v.576h4.992c.96,0,1.872-.816,1.872-1.92,0-.96-.672-1.729-1.68-1.824h1.584v-.624h-1.776ZM730.966,1378.28v.576h6.769v-.576h-6.769ZM731.542,1384.761v-1.536h-.576v1.536h.576ZM730.966,1385.241v.624h6.769v-.624h-6.769ZM734.374,1392.346c-.24-.48-.864-.769-1.584-.769-1.056,0-1.824.769-1.824,1.824,0,1.104.769,1.969,1.824,1.969v-.624c-.624,0-1.248-.624-1.248-1.345,0-.624.624-1.248,1.248-1.248.72,0,1.344.624,1.344,1.248h.528c0-.624.576-1.248,1.44-1.248.624,0,1.248.624,1.248,1.248,0,.721-.624,1.345-1.248,1.345v.624c.912,0,1.824-.864,1.824-1.969,0-1.056-.912-1.824-1.824-1.824-.721,0-1.345.288-1.729.769ZM732.694,1387.642c.72,0,1.296.479,1.296,1.199,0,.624-.48,1.248-1.2,1.248-.624,0-1.248-.624-1.248-1.248,0-.72.48-1.199,1.152-1.199ZM737.446,1367.863l-3.648,2.832.336.48,3.696-2.832-.384-.48ZM735.862,1382.937c-.96,0-1.872.816-1.872,1.824h.672c0-.576.528-1.2,1.2-1.2s1.296.624,1.296,1.2h.576c0-1.008-.864-1.824-1.872-1.824ZM735.19,1387.929l-.288.337,2.736,2.592.432-.384-2.88-2.545Z"/>
    </g>
    <g>
      <rect class="cls-1" x="947.482" y="488.855" width=".676" height="935.88"/>
      <rect class="cls-1" x="862.442" y="488.855" width=".676" height="935.88"/>
      <rect class="cls-1" x="777.403" y="488.855" width=".676" height="935.88"/>
      <rect class="cls-1" x="692.364" y="488.855" width=".676" height="935.88"/>
      <rect class="cls-1" x="607.324" y="488.855" width=".676" height="935.88"/>
      <rect class="cls-1" x="522.285" y="488.855" width=".676" height="935.88"/>
      <rect class="cls-1" x="437.246" y="488.855" width=".676" height="935.88"/>
      <rect class="cls-1" x="352.206" y="488.855" width=".676" height="935.88"/>
      <rect class="cls-1" x="267.167" y="488.855" width=".676" height="935.88"/>
      <rect class="cls-1" x="182.127" y="488.855" width=".676" height="935.88"/>
      <rect class="cls-1" x="97.088" y="488.855" width=".676" height="935.88"/>
      <rect class="cls-1" x="12.049" y="488.855" width=".676" height="935.88"/>
    </g>
    <g>
      <rect class="cls-1" x="12.049" y="1424.288" width="935.979" height=".676"/>
      <rect class="cls-1" x="12.049" y="1339.248" width="935.979" height=".676"/>
      <rect class="cls-1" x="12.049" y="1254.209" width="935.979" height=".676"/>
      <rect class="cls-1" x="12.049" y="1169.17" width="935.979" height=".676"/>
      <rect class="cls-1" x="12.049" y="1084.13" width="935.979" height=".676"/>
      <rect class="cls-1" x="12.049" y="999.091" width="935.979" height=".676"/>
      <rect class="cls-1" x="12.049" y="914.052" width="935.979" height=".676"/>
      <rect class="cls-1" x="12.049" y="829.012" width="935.979" height=".676"/>
      <rect class="cls-1" x="12.049" y="743.973" width="935.979" height=".676"/>
      <rect class="cls-1" x="12.049" y="658.933" width="935.979" height=".676"/>
      <rect class="cls-1" x="12.049" y="573.894" width="935.979" height=".676"/>
      <rect class="cls-1" x="12.049" y="488.855" width="935.979" height=".676"/>
    </g>
  </g>
  <g>
    <path class="cls-1" d="M42.109,268.366v31.019c0,6.36-5.1,11.52-11.459,11.52s-11.459-5.159-11.459-11.52h3.78c0,4.26,3.48,7.68,7.68,7.68s7.68-3.42,7.68-7.68v-31.019h3.78ZM34.909,272.146h-10.799v-3.78h10.799v3.78Z"/>
    <path class="cls-1" d="M70.009,311.024c-11.94,0-21.719-9.899-21.719-22.02s9.779-21.299,21.719-21.299,21.659,9.72,21.659,21.659-9.719,21.659-21.659,21.659ZM70.009,271.546c-9.84,0-17.819,8.1-17.819,17.819,0,9.84,7.979,17.819,17.819,17.819s17.819-7.979,17.819-17.819c0-9.72-7.979-17.819-17.819-17.819Z"/>
    <path class="cls-1" d="M103.248,311.024l-9.24-43.258,3.66-.78,9.299,43.258-3.72.78ZM112.128,311.024l-3.72-.78,9.3-43.258,3.66.78-9.239,43.258Z"/>
    <path class="cls-1" d="M148.967,272.146h-23.159v-3.78h23.159v3.78ZM148.967,310.364h-23.159v-3.779h23.159v3.779ZM139.127,303.885h-3.78v-29.398h3.78v29.398Z"/>
    <path class="cls-1" d="M200.385,289.365v20.999h-3.78v-12.239c-3.36,7.62-10.979,12.899-19.799,12.899-11.94,0-21.719-9.899-21.719-22.02s9.779-21.299,21.719-21.299,21.659,9.72,21.659,21.659h1.92ZM194.625,289.365c0-9.72-7.979-17.819-17.819-17.819s-17.819,8.1-17.819,17.819c0,9.84,7.979,17.819,17.819,17.819s17.819-7.979,17.819-17.819Z"/>
    <path class="cls-1" d="M212.446,268.366v41.998h-3.78v-41.998h3.78ZM225.226,306.585v3.779h-10.08v-3.779h10.08Z"/>
    <path class="cls-1" d="M269.685,311.024c-5.58,0-11.16-2.22-15.359-6.42-8.28-8.34-8.28-22.199,0-30.479,8.459-8.52,22.139-8.52,30.539,0l-2.76,2.7c-6.9-6.84-18.059-6.84-25.019,0-6.84,6.959-6.84,18.059,0,24.959,6.96,6.899,18.119,6.899,25.019,0l2.76,2.819c-4.2,4.2-9.719,6.42-15.179,6.42Z"/>
    <path class="cls-1" d="M334.843,289.365v20.999h-3.78v-12.239c-3.36,7.62-10.979,12.899-19.799,12.899-11.94,0-21.719-9.899-21.719-22.02s9.779-21.299,21.719-21.299,21.659,9.72,21.659,21.659h1.92ZM329.083,289.365c0-9.72-7.979-17.819-17.819-17.819s-17.819,8.1-17.819,17.819c0,9.84,7.979,17.819,17.819,17.819s17.819-7.979,17.819-17.819Z"/>
    <path class="cls-1" d="M346.904,268.366v41.998h-3.78v-41.998h3.78ZM359.684,306.585v3.779h-10.08v-3.779h10.08Z"/>
    <path class="cls-1" d="M368.504,268.366v41.998h-3.78v-41.998h3.78ZM381.283,306.585v3.779h-10.08v-3.779h10.08Z"/>
    <path class="cls-1" d="M409.481,272.146h-23.159v-3.78h23.159v3.78ZM409.481,310.364h-23.159v-3.779h23.159v3.779ZM399.642,303.885h-3.779v-29.398h3.779v29.398Z"/>
    <path class="cls-1" d="M437.201,311.024c-5.58,0-11.159-2.22-15.359-6.42-8.279-8.34-8.279-22.199,0-30.479,8.46-8.52,22.139-8.52,30.539,0l-2.761,2.7c-6.899-6.84-18.059-6.84-25.019,0-6.84,6.959-6.84,18.059,0,24.959,6.96,6.899,18.119,6.899,25.019,0l2.761,2.819c-4.2,4.2-9.72,6.42-15.18,6.42ZM454.36,300.405h-23.159v-3.78h23.159v3.78Z"/>
    <path class="cls-1" d="M460.542,310.364v-41.998h3.78v41.998h-3.78ZM477.821,311.024l-12.479-15.539,3-2.46,12.479,15.6-3,2.399ZM466.842,291.285v-3.84c4.14,0,7.56-3.42,7.56-7.619,0-4.141-3.42-7.561-7.56-7.561v-3.899c6.3,0,11.46,5.16,11.46,11.46,0,6.359-5.16,11.459-11.46,11.459Z"/>
    <path class="cls-1" d="M528.399,289.365v20.999h-3.78v-12.239c-3.359,7.62-10.979,12.899-19.799,12.899-11.939,0-21.72-9.899-21.72-22.02s9.78-21.299,21.72-21.299,21.659,9.72,21.659,21.659h1.92ZM522.64,289.365c0-9.72-7.979-17.819-17.819-17.819s-17.819,8.1-17.819,17.819c0,9.84,7.979,17.819,17.819,17.819s17.819-7.979,17.819-17.819Z"/>
    <path class="cls-1" d="M540.461,310.364h-3.78v-41.998h3.78v41.998ZM543.16,291.226v-3.78c4.141,0,7.62-3.479,7.62-7.619s-3.479-7.62-7.62-7.62v-3.84c6.3,0,11.4,5.16,11.4,11.46,0,6.239-5.101,11.399-11.4,11.399Z"/>
    <path class="cls-1" d="M564.52,310.364h-3.78v-41.998h3.78v41.998ZM577.419,291.285h-10.2v-3.779h10.2v3.779ZM583.898,310.364h-3.78v-41.998h3.78v41.998Z"/>
    <path class="cls-1" d="M595.959,283.966h12.779v3.779h-12.779v22.619h-3.78v-41.998h3.78v15.6ZM608.738,268.366v3.78h-10.08v-3.78h10.08ZM598.658,306.585h10.08v3.779h-10.08v-3.779Z"/>
    <path class="cls-1" d="M615.039,310.364v-41.998h3.78v41.998h-3.78ZM632.318,311.024l-12.479-15.539,3-2.46,12.479,15.6-3,2.399ZM621.339,291.285v-3.84c4.14,0,7.56-3.42,7.56-7.619,0-4.141-3.42-7.561-7.56-7.561v-3.899c6.3,0,11.46,5.16,11.46,11.46,0,6.359-5.16,11.459-11.46,11.459Z"/>
    <path class="cls-1" d="M698.376,311.444l-5.1-5.52c-3.78,3.18-8.64,5.1-13.92,5.1-11.939,0-21.719-9.899-21.719-22.02s9.779-21.299,21.719-21.299,21.659,9.72,21.659,21.659c0,5.34-1.92,10.199-5.1,13.979l5.16,5.58-2.7,2.52ZM690.636,303.165l-7.919-8.58,2.699-2.52,7.86,8.459c2.46-3.06,3.899-6.959,3.899-11.159,0-9.72-7.979-17.819-17.819-17.819s-17.819,8.1-17.819,17.819c0,9.84,7.979,17.819,17.819,17.819,4.32,0,8.22-1.5,11.279-4.02Z"/>
    <path class="cls-1" d="M733.896,299.385v10.979h-3.779v-9.779c-.6,5.819-5.46,10.319-11.399,10.319-6.36,0-11.46-5.159-11.46-11.52v-31.019h3.78v31.019c0,4.26,3.479,7.68,7.68,7.68s7.68-3.42,7.68-7.68v-31.019h3.779v31.019h3.72Z"/>
    <path class="cls-1" d="M763.236,272.146h-23.159v-3.78h23.159v3.78ZM763.236,310.364h-23.159v-3.779h23.159v3.779ZM753.396,303.885h-3.779v-29.398h3.779v29.398Z"/>
    <path class="cls-1" d="M790.955,311.024c-5.58,0-11.159-2.22-15.359-6.42-8.279-8.34-8.279-22.199,0-30.479,8.46-8.52,22.139-8.52,30.539,0l-2.761,2.7c-6.899-6.84-18.059-6.84-25.019,0-6.84,6.959-6.84,18.059,0,24.959,6.96,6.899,18.119,6.899,25.019,0l2.761,2.819c-4.2,4.2-9.72,6.42-15.18,6.42Z"/>
    <path class="cls-1" d="M816.695,310.364h-3.72v-41.998h3.72v41.998ZM839.495,308.744l-2.94,2.28-17.64-22.919,2.94-2.28,17.64,22.919ZM834.035,266.986l2.58,2.64-14.939,14.46-2.58-2.641,14.939-14.459Z"/>
    <path class="cls-1" d="M847.716,268.366v41.998h-3.78v-41.998h3.78ZM860.495,306.585v3.779h-10.08v-3.779h10.08Z"/>
    <path class="cls-1" d="M877.233,287.625l-14.938-17.339,2.939-2.58,14.939,17.399-2.94,2.52ZM885.754,268.366v31.019c0,6.36-5.101,11.52-11.46,11.52s-11.459-5.159-11.459-11.52h3.779c0,4.26,3.479,7.68,7.68,7.68s7.68-3.42,7.68-7.68v-31.019h3.78Z"/>
    <path class="cls-1" d="M26.21,355.966h12.779v3.779h-12.779v22.619h-3.78v-41.998h3.78v15.6ZM38.989,340.366v3.78h-10.08v-3.78h10.08Z"/>
    <path class="cls-1" d="M68.269,344.146h-23.159v-3.78h23.159v3.78ZM68.269,382.364h-23.159v-3.779h23.159v3.779ZM58.429,375.885h-3.78v-29.398h3.78v29.398Z"/>
    <path class="cls-1" d="M76.668,382.965l-3.36-1.74,21.959-41.578,3.36,1.8-21.959,41.519ZM81.229,356.506l-7.92-15.06,3.36-1.8,7.92,15.06-3.36,1.8ZM95.688,382.965l-8.219-15.06,3.419-1.8,8.1,15.119-3.3,1.74Z"/>
    <path class="cls-1" d="M107.808,355.966h12.78v3.779h-12.78v22.619h-3.78v-41.998h3.78v15.6ZM120.587,340.366v3.78h-10.08v-3.78h10.08ZM110.508,378.585h10.08v3.779h-10.08v-3.779Z"/>
    <path class="cls-1" d="M130.668,382.364h-3.78v-41.998h3.78v41.998ZM133.368,382.364v-3.899c9.479,0,17.159-7.68,17.159-17.1s-7.68-17.1-17.159-17.1v-3.899c11.58,0,20.999,9.479,20.999,20.999s-9.419,20.999-20.999,20.999Z"/>
    <path class="cls-1" d="M180.526,340.366h3.78v41.998h-3.78v-41.998ZM198.406,370.965c0,6.24-5.1,11.399-11.399,11.399v-3.779c4.14,0,7.62-3.48,7.62-7.62s-3.48-7.619-7.62-7.619v-3.9c4.14,0,7.62-3.479,7.62-7.619s-3.48-7.62-7.62-7.62v-3.84c6.3,0,11.399,5.16,11.399,11.46,0,3.959-2.04,7.499-5.16,9.539,3.12,2.04,5.16,5.58,5.16,9.6Z"/>
    <path class="cls-1" d="M228.105,344.146h-23.159v-3.78h23.159v3.78ZM228.105,382.364h-23.159v-3.779h23.159v3.779ZM218.266,375.885h-3.78v-29.398h3.78v29.398Z"/>
    <path class="cls-1" d="M255.825,383.024c-5.58,0-11.16-2.22-15.359-6.42-8.28-8.34-8.28-22.199,0-30.479,8.459-8.52,22.139-8.52,30.539,0l-2.76,2.7c-6.9-6.84-18.059-6.84-25.019,0-6.84,6.959-6.84,18.059,0,24.959,6.96,6.899,18.119,6.899,25.019,0l2.76,2.819c-4.2,4.2-9.719,6.42-15.179,6.42ZM272.984,372.405h-23.159v-3.78h23.159v3.78Z"/>
    <path class="cls-1" d="M299.145,340.366h3.78v41.998h-3.78v-41.998ZM317.024,370.965c0,6.24-5.1,11.399-11.399,11.399v-3.779c4.14,0,7.62-3.48,7.62-7.62s-3.48-7.619-7.62-7.619v-3.9c4.14,0,7.62-3.479,7.62-7.619s-3.48-7.62-7.62-7.62v-3.84c6.3,0,11.399,5.16,11.399,11.46,0,3.959-2.04,7.499-5.16,9.539,3.12,2.04,5.16,5.58,5.16,9.6Z"/>
    <path class="cls-1" d="M343.185,383.024c-11.94,0-21.719-9.899-21.719-22.02s9.779-21.299,21.719-21.299,21.659,9.72,21.659,21.659-9.72,21.659-21.659,21.659ZM343.185,343.546c-9.84,0-17.819,8.1-17.819,17.819,0,9.84,7.979,17.819,17.819,17.819s17.819-7.979,17.819-17.819c0-9.72-7.98-17.819-17.819-17.819Z"/>
    <path class="cls-1" d="M371.145,382.965l-3.359-1.74,21.959-41.578,3.359,1.8-21.959,41.519ZM375.704,356.506l-7.919-15.06,3.359-1.8,7.92,15.06-3.36,1.8ZM390.164,382.965l-8.22-15.06,3.42-1.8,8.1,15.119-3.3,1.74Z"/>
    <path class="cls-1" d="M402.284,355.966h12.779v3.779h-12.779v22.619h-3.78v-41.998h3.78v15.6ZM415.063,340.366v3.78h-10.08v-3.78h10.08ZM404.983,378.585h10.08v3.779h-10.08v-3.779Z"/>
    <path class="cls-1" d="M442.963,371.265c0,6.48-5.34,11.76-11.819,11.76s-11.76-5.279-11.76-11.76h3.779c0,4.38,3.601,7.979,7.98,7.979s7.979-3.6,7.979-7.979c0-4.439-3.601-7.979-7.979-7.979-6.48,0-11.76-5.279-11.76-11.76s5.279-11.819,11.76-11.819c6.539,0,11.819,5.34,11.819,11.819h-3.84c0-4.38-3.601-7.979-7.979-7.979-4.32,0-7.98,3.6-7.98,7.979s3.66,7.92,7.98,7.92c6.479,0,11.819,5.34,11.819,11.819Z"/>
    <path class="cls-1" d="M469.843,339.706l7.021,42.059-3.9.66-7.079-42.059,3.959-.66ZM487.242,339.706l3.72.78-9.119,41.938-3.66-.78,9.06-41.938ZM496.122,339.706l9.06,42.059-3.66.78-9.119-42.059,3.72-.78ZM512.861,339.767l3.96.6-6.359,41.998-3.96-.54,6.359-42.058Z"/>
    <path class="cls-1" d="M545.021,344.146h-23.159v-3.78h23.159v3.78ZM545.021,382.364h-23.159v-3.779h23.159v3.779ZM535.182,375.885h-3.779v-29.398h3.779v29.398Z"/>
    <path class="cls-1" d="M573.221,344.146h-23.158v-3.78h23.158v3.78ZM563.562,382.364h-3.78v-35.519h3.78v35.519Z"/>
    <path class="cls-1" d="M582.041,382.364h-3.78v-41.998h3.78v41.998ZM594.94,363.285h-10.2v-3.779h10.2v3.779ZM601.42,382.364h-3.78v-41.998h3.78v41.998Z"/>
    <path class="cls-1" d="M65.568,433.365v20.999h-3.78v-12.239c-3.36,7.62-10.979,12.899-19.799,12.899-11.939,0-21.719-9.899-21.719-22.02s9.78-21.299,21.719-21.299,21.659,9.72,21.659,21.659h1.92ZM59.809,433.365c0-9.72-7.98-17.819-17.819-17.819s-17.819,8.1-17.819,17.819c0,9.84,7.979,17.819,17.819,17.819s17.819-7.979,17.819-17.819Z"/>
    <path class="cls-1" d="M77.63,412.366v41.998h-3.78v-41.998h3.78ZM88.309,455.024l-9.24-42.658,3.66-.78,9.3,42.658-3.72.78ZM97.189,455.024l-3.72-.78,9.3-42.658,3.66.78-9.24,42.658ZM111.528,412.366v41.998h-3.78v-41.998h3.78Z"/>
    <path class="cls-1" d="M162.947,433.365v20.999h-3.78v-12.239c-3.36,7.62-10.979,12.899-19.799,12.899-11.939,0-21.719-9.899-21.719-22.02s9.78-21.299,21.719-21.299,21.659,9.72,21.659,21.659h1.92ZM157.188,433.365c0-9.72-7.98-17.819-17.819-17.819s-17.819,8.1-17.819,17.819c0,9.84,7.979,17.819,17.819,17.819s17.819-7.979,17.819-17.819Z"/>
    <path class="cls-1" d="M170.929,454.965l-3.54-2.16,23.519-41.158,3.6,2.1-23.579,41.219ZM186.948,416.146h-16.919v-3.78h16.919v3.78ZM191.988,454.364h-16.859v-3.779h16.859v3.779Z"/>
    <path class="cls-1" d="M222.107,416.146h-23.159v-3.78h23.159v3.78ZM222.107,454.364h-23.159v-3.779h23.159v3.779ZM212.268,447.885h-3.78v-29.398h3.78v29.398Z"/>
    <path class="cls-1" d="M230.387,454.364v-41.998h3.78v41.998h-3.78ZM247.606,449.265l-12.179-30.898,3.54-1.38,12.24,30.839-3.6,1.439ZM252.586,454.364v-41.998h3.78v41.998h-3.78Z"/>
    <path class="cls-1" d="M284.086,455.024c-5.58,0-11.16-2.22-15.359-6.42-8.28-8.34-8.28-22.199,0-30.479,8.459-8.52,22.139-8.52,30.539,0l-2.76,2.7c-6.9-6.84-18.059-6.84-25.019,0-6.84,6.959-6.84,18.059,0,24.959,6.96,6.899,18.119,6.899,25.019,0l2.76,2.819c-4.2,4.2-9.72,6.42-15.179,6.42ZM301.246,444.405h-23.159v-3.78h23.159v3.78Z"/>
    <path class="cls-1" d="M331.187,427.966h12.779v3.779h-12.779v22.619h-3.78v-41.998h3.78v15.6ZM343.966,412.366v3.78h-10.08v-3.78h10.08Z"/>
    <path class="cls-1" d="M373.245,416.146h-23.159v-3.78h23.159v3.78ZM373.245,454.364h-23.159v-3.779h23.159v3.779ZM363.405,447.885h-3.779v-29.398h3.779v29.398Z"/>
    <path class="cls-1" d="M381.525,454.364v-41.998h3.78v41.998h-3.78ZM398.745,449.265l-12.18-30.898,3.54-1.38,12.239,30.839-3.6,1.439ZM403.725,454.364v-41.998h3.78v41.998h-3.78Z"/>
    <path class="cls-1" d="M435.225,455.024c-5.58,0-11.159-2.22-15.359-6.42-8.279-8.34-8.279-22.199,0-30.479,8.46-8.52,22.139-8.52,30.539,0l-2.761,2.7c-6.899-6.84-18.059-6.84-25.019,0-6.84,6.959-6.84,18.059,0,24.959,6.96,6.899,18.119,6.899,25.019,0l2.761,2.819c-4.2,4.2-9.72,6.42-15.18,6.42Z"/>
    <path class="cls-1" d="M461.025,454.364h-3.78v-41.998h3.78v41.998ZM473.925,435.285h-10.2v-3.779h10.2v3.779ZM480.404,454.364h-3.78v-41.998h3.78v41.998Z"/>
    <path class="cls-1" d="M547.302,455.444l-5.1-5.52c-3.78,3.18-8.64,5.1-13.92,5.1-11.939,0-21.719-9.899-21.719-22.02s9.779-21.299,21.719-21.299,21.659,9.72,21.659,21.659c0,5.34-1.92,10.199-5.1,13.979l5.16,5.58-2.7,2.52ZM539.562,447.165l-7.919-8.58,2.699-2.52,7.86,8.459c2.46-3.06,3.899-6.959,3.899-11.159,0-9.72-7.979-17.819-17.819-17.819s-17.819,8.1-17.819,17.819c0,9.84,7.979,17.819,17.819,17.819,4.32,0,8.22-1.5,11.279-4.02Z"/>
    <path class="cls-1" d="M582.821,443.385v10.979h-3.779v-9.779c-.6,5.819-5.46,10.319-11.399,10.319-6.36,0-11.46-5.159-11.46-11.52v-31.019h3.78v31.019c0,4.26,3.479,7.68,7.68,7.68s7.68-3.42,7.68-7.68v-31.019h3.779v31.019h3.72Z"/>
    <path class="cls-1" d="M612.162,416.146h-23.159v-3.78h23.159v3.78ZM612.162,454.364h-23.159v-3.779h23.159v3.779ZM602.322,447.885h-3.779v-29.398h3.779v29.398Z"/>
    <path class="cls-1" d="M624.223,412.366v41.998h-3.78v-41.998h3.78ZM637.002,450.585v3.779h-10.08v-3.779h10.08Z"/>
    <path class="cls-1" d="M645.821,412.366v41.998h-3.78v-41.998h3.78ZM658.601,450.585v3.779h-10.08v-3.779h10.08Z"/>
    <path class="cls-1" d="M685.24,443.265c0,6.48-5.34,11.76-11.819,11.76s-11.76-5.279-11.76-11.76h3.779c0,4.38,3.601,7.979,7.98,7.979s7.979-3.6,7.979-7.979c0-4.439-3.601-7.979-7.979-7.979-6.48,0-11.76-5.279-11.76-11.76s5.279-11.819,11.76-11.819c6.539,0,11.819,5.34,11.819,11.819h-3.84c0-4.38-3.601-7.979-7.979-7.979-4.32,0-7.98,3.6-7.98,7.979s3.66,7.92,7.98,7.92c6.479,0,11.819,5.34,11.819,11.819Z"/>
  </g>
  <g>
    <path class="cls-1" d="M30.768,222.9l-16.52-10.08L124.008,20.741l16.8,9.8L30.768,222.9ZM105.528,41.741H26.568v-17.64h78.959v17.64ZM129.048,220.1H50.368v-17.64h78.68v17.64Z"/>
    <path class="cls-1" d="M218.926,113.98l-69.719-80.919,13.72-12.04,69.72,81.2-13.72,11.76ZM258.687,24.101v144.759c0,29.68-23.8,53.76-53.48,53.76s-53.479-24.08-53.479-53.76h17.64c0,19.88,16.24,35.84,35.84,35.84s35.84-15.96,35.84-35.84V24.101h17.64Z"/>
    <path class="cls-1" d="M322.524,21.301l17.36,3.64-43.4,198.239-17.08-3.64,43.12-198.239ZM366.764,161.3h-47.04v-17.64h47.04v17.64ZM363.964,21.301l43.12,198.239-17.08,3.64-43.4-198.239,17.36-3.64Z"/>
    <path class="cls-1" d="M427.801,24.101h17.64v195.999h-17.64V24.101ZM511.241,166.9c0,29.12-23.8,53.2-53.201,53.2v-17.64c19.32,0,35.561-16.24,35.561-35.56s-16.241-35.56-35.561-35.56v-18.2c19.32,0,35.561-16.24,35.561-35.56s-16.241-35.56-35.561-35.56v-17.92c29.401,0,53.201,24.08,53.201,53.479,0,18.48-9.521,35-24.08,44.52,14.56,9.52,24.08,26.04,24.08,44.8Z"/>
    <path class="cls-1" d="M559.4,24.101v195.999h-17.64V24.101h17.64ZM619.04,202.46v17.64h-47.04v-17.64h47.04Z"/>
    <path class="cls-1" d="M750.636,41.741h-108.079v-17.64h108.079v17.64ZM750.636,220.1h-108.079v-17.64h108.079v17.64ZM704.716,189.86h-17.64V52.661h17.64v137.2Z"/>
    <path class="cls-1" d="M806.633,220.1h-17.359V24.101h17.359v195.999ZM913.032,212.54l-13.72,10.64-82.319-106.959,13.72-10.64,82.319,106.959ZM887.553,17.661l12.04,12.32-69.72,67.479-12.04-12.32,69.72-67.479Z"/>
  </g>
</svg>