<?xml version="1.0" encoding="UTF-8"?>
<svg id="Layer_1" data-name="Layer 1" xmlns="http://www.w3.org/2000/svg" version="1.1" viewBox="0 0 960 1460">
  <defs>
    <style>
      .cls-1 {
        fill: #fff;
        stroke-width: 0px;
      }
    </style>
  </defs>
  <g>
    <path class="cls-1" d="M50.5,530.1l3,.6-7.4,34-2.9-.6,7.4-34h0ZM58,554.1h-8.1v-3h8.1v3ZM57.6,530.1l7.4,34-2.9.6-7.4-34,3-.6h0Z"/>
    <path class="cls-1" d="M156.3,547.3v16.8h-3v-9.8c-2.7,6.1-8.8,10.3-15.8,10.3s-17.4-7.9-17.4-17.6,7.8-17,17.4-17,17.3,7.8,17.3,17.3h1.5ZM151.7,547.3c0-7.8-6.4-14.3-14.3-14.3s-14.3,6.5-14.3,14.3,6.4,14.3,14.3,14.3,14.3-6.4,14.3-14.3Z"/>
    <path class="cls-1" d="M217.6,530.5h3v33.6h-3v-33.6ZM231.9,555c0,5-4.1,9.1-9.1,9.1v-3c3.3,0,6.1-2.8,6.1-6.1s-2.8-6.1-6.1-6.1v-3.1c3.3,0,6.1-2.8,6.1-6.1s-2.8-6.1-6.1-6.1v-3.1c5,0,9.1,4.1,9.1,9.2s-1.6,6-4.1,7.6c2.5,1.6,4.1,4.5,4.1,7.7h0Z"/>
    <path class="cls-1" d="M311.4,564.7c-4.5,0-8.9-1.8-12.3-5.1-6.6-6.7-6.6-17.8,0-24.4,6.8-6.8,17.7-6.8,24.4,0l-2.2,2.2c-5.5-5.5-14.4-5.5-20,0-5.5,5.6-5.5,14.4,0,20,5.6,5.5,14.5,5.5,20,0l2.2,2.3c-3.4,3.4-7.8,5.1-12.1,5.1h0Z"/>
    <path class="cls-1" d="M387,564.1h-3v-33.6h3v33.6ZM389.2,564.1v-3.1c7.6,0,13.7-6.1,13.7-13.7s-6.1-13.7-13.7-13.7v-3.1c9.3,0,16.8,7.6,16.8,16.8s-7.5,16.8-16.8,16.8Z"/>
    <path class="cls-1" d="M476.4,543h10.2v3h-10.2v18.1h-3v-33.6h3v12.5ZM486.6,530.5v3h-8.1v-3h8.1ZM478.6,561.1h8.1v3h-8.1v-3Z"/>
    <path class="cls-1" d="M561.5,543h10.2v3h-10.2v18.1h-3v-33.6h3v12.5ZM571.7,530.5v3h-8.1v-3h8.1Z"/>
    <path class="cls-1" d="M651,564.7c-4.5,0-8.9-1.8-12.3-5.1-6.6-6.7-6.6-17.8,0-24.4,6.8-6.8,17.7-6.8,24.4,0l-2.2,2.2c-5.5-5.5-14.4-5.5-20,0-5.5,5.6-5.5,14.4,0,20,5.6,5.5,14.5,5.5,20,0l2.2,2.3c-3.4,3.4-7.8,5.1-12.1,5.1h0ZM664.8,556.2h-18.5v-3h18.5v3Z"/>
    <path class="cls-1" d="M728.1,564.1h-3v-33.6h3v33.6ZM738.4,548.9h-8.2v-3h8.2v3ZM743.6,564.1h-3v-33.6h3v33.6Z"/>
    <path class="cls-1" d="M828.6,533.6h-18.5v-3h18.5v3ZM828.6,564.1h-18.5v-3h18.5v3ZM820.8,559h-3v-23.5h3v23.5Z"/>
    <path class="cls-1" d="M912.3,530.5v24.8c0,5.1-4.1,9.2-9.2,9.2s-9.2-4.1-9.2-9.2h3c0,3.4,2.8,6.1,6.1,6.1s6.1-2.7,6.1-6.1v-24.8h3.2ZM906.5,533.6h-8.6v-3h8.6v3Z"/>
    <path class="cls-1" d="M47.9,649.7h-3v-33.6h3v33.6ZM66.2,648.4l-2.4,1.8-14.1-18.3,2.4-1.8,14.1,18.3ZM61.8,615l2.1,2.1-12,11.6-2.1-2.1,12-11.6Z"/>
    <path class="cls-1" d="M136.7,616.1v33.6h-3v-33.6h3ZM147,646.7v3h-8.1v-3h8.1Z"/>
    <path class="cls-1" d="M206.9,650.3l-3.2-.5,5.7-33.6,3.1.5-5.6,33.6ZM220.8,650.3l-7.2-33.8,2.9-.6,7.3,33.8-3,.6ZM227.9,650.3l-3-.6,7.3-33.9,2.9.6-7.2,33.9ZM241.3,650.2l-5.1-33.6,3.2-.4,5.1,33.5-3.2.5Z"/>
    <path class="cls-1" d="M297.1,616.1v33.6h-3v-33.6h3ZM305.6,650.3l-7.4-34.1,2.9-.6,7.4,34.1-3,.6h.1ZM312.7,650.3l-3-.6,7.4-34.1,2.9.6-7.4,34.1h.1ZM324.2,616.1v33.6h-3v-33.6h3Z"/>
    <path class="cls-1" d="M383.8,649.7v-33.6h3v33.6h-3ZM397.6,645.7l-9.7-24.7,2.8-1.1,9.8,24.7-2.9,1.2h0ZM401.5,649.7v-33.6h3v33.6h-3Z"/>
    <path class="cls-1" d="M479.2,650.3c-9.6,0-17.4-7.9-17.4-17.6s7.8-17,17.4-17,17.3,7.8,17.3,17.3-7.8,17.3-17.3,17.3ZM479.2,618.7c-7.9,0-14.3,6.5-14.3,14.3s6.4,14.3,14.3,14.3,14.3-6.4,14.3-14.3-6.4-14.3-14.3-14.3Z"/>
    <path class="cls-1" d="M561,649.7h-3v-33.6h3v33.6ZM563.1,634.4v-3c3.3,0,6.1-2.8,6.1-6.1s-2.8-6.1-6.1-6.1v-3.1c5,0,9.1,4.1,9.1,9.2s-4.1,9.1-9.1,9.1h0Z"/>
    <path class="cls-1" d="M664.5,650.6l-4.1-4.4c-3,2.5-6.9,4.1-11.1,4.1-9.6,0-17.4-7.9-17.4-17.6s7.8-17,17.4-17,17.3,7.8,17.3,17.3-1.5,8.2-4.1,11.2l4.1,4.5-2.2,2h0ZM658.3,644l-6.3-6.9,2.2-2,6.3,6.8c2-2.4,3.1-5.6,3.1-8.9,0-7.8-6.4-14.3-14.3-14.3s-14.3,6.5-14.3,14.3,6.4,14.3,14.3,14.3,6.6-1.2,9-3.2h0Z"/>
    <path class="cls-1" d="M727.8,649.7v-33.6h3v33.6h-3ZM741.6,650.3l-10-12.4,2.4-2,10,12.5-2.4,1.9ZM732.8,634.5v-3.1c3.3,0,6-2.7,6-6.1s-2.7-6-6-6v-3.1c5,0,9.2,4.1,9.2,9.2s-4.1,9.2-9.2,9.2h0Z"/>
    <path class="cls-1" d="M814.4,631.6v18.1h-3v-24.9c0-5,4-9.1,9-9.1s9.2,4.1,9.2,9.1-4,9.1-9.1,9.1-4.5-.9-6-2.3h-.1ZM814.4,624.8c0,3.4,2.8,6.1,6,6.1s6.1-2.7,6.1-6.1-2.7-6-6.1-6-6,2.7-6,6ZM830.5,648.6l-2.2,2-12.5-13.5,2.2-2,12.5,13.5Z"/>
    <path class="cls-1" d="M913.9,640.9c0,5.2-4.3,9.4-9.5,9.4s-9.4-4.2-9.4-9.4h3c0,3.5,2.9,6.4,6.4,6.4s6.4-2.9,6.4-6.4-2.9-6.4-6.4-6.4c-5.2,0-9.4-4.2-9.4-9.4s4.2-9.5,9.4-9.5,9.5,4.3,9.5,9.5h-3.1c0-3.5-2.9-6.4-6.4-6.4s-6.4,2.9-6.4,6.4,2.9,6.3,6.4,6.3c5.2,0,9.5,4.3,9.5,9.5h0Z"/>
    <path class="cls-1" d="M63.3,704.8h-18.5v-3h18.5v3ZM55.5,735.3h-3v-28.4h3v28.4Z"/>
    <path class="cls-1" d="M150.5,726.6v8.8h-3v-7.8c-.5,4.7-4.4,8.3-9.1,8.3s-9.2-4.1-9.2-9.2v-24.8h3v24.8c0,3.4,2.8,6.1,6.1,6.1s6.1-2.7,6.1-6.1v-24.8h3v24.8h3.1Z"/>
    <path class="cls-1" d="M220.5,735.9l-7.4-34.6,2.9-.6,7.4,34.6-3,.6h.1ZM227.6,735.9l-3-.6,7.4-34.6,2.9.6-7.4,34.6h.1Z"/>
    <path class="cls-1" d="M291.9,701.2l5.6,33.7-3.1.5-5.7-33.7,3.2-.5ZM305.8,701.2l3,.6-7.3,33.6-2.9-.6,7.2-33.6h0ZM312.9,701.2l7.2,33.7-2.9.6-7.3-33.7,3-.6h0ZM326.3,701.3l3.2.5-5.1,33.6-3.2-.4,5.1-33.7h0Z"/>
    <path class="cls-1" d="M386.6,735.8l-2.7-1.4,17.6-33.3,2.7,1.4-17.6,33.2h0ZM390.2,714.7l-6.3-12,2.7-1.4,6.3,12-2.7,1.4ZM401.8,735.8l-6.6-12,2.7-1.4,6.5,12.1-2.6,1.4h0Z"/>
    <path class="cls-1" d="M480.5,717.2l-12-13.9,2.4-2.1,12,13.9-2.4,2h0ZM487.3,701.7v24.8c0,5.1-4.1,9.2-9.2,9.2s-9.2-4.1-9.2-9.2h3c0,3.4,2.8,6.1,6.1,6.1s6.1-2.7,6.1-6.1v-24.8h3.2Z"/>
    <path class="cls-1" d="M556.2,735.8l-2.8-1.7,18.8-32.9,2.9,1.7-18.9,33h0ZM569,704.8h-13.5v-3h13.5v3ZM573.1,735.3h-13.5v-3h13.5v3Z"/>
    <path class="cls-1" d="M656.1,708.2c0,3.5-2.9,6.4-6.4,6.4s-4-1.1-5.1-2.6c-.7.4-1.6.7-2.6.8v-.7c.9,0,1.6-.3,2.3-.7-.5-.9-.9-2-.9-3.2,0-3.6,2.9-6.4,6.4-6.4s6.4,2.9,6.4,6.4h-.1ZM655.4,708.2c0-3.2-2.5-5.7-5.7-5.7s-5.7,2.5-5.7,5.7,0,1.3.3,1.9c.7-1.5,2.9-5.8,5.4-6.4l-.6-.3.3-.6,2.2,1.1c1.8.9,2.5,3.4,2.5,3.6l-.4.4-2.5-.4v.3c.3.9,0,1.9-.6,2.6,0,0-.3.3-.5.4l1.9,2.6c2-.9,3.4-2.9,3.4-5.2h0ZM649.6,713.9c.6,0,1.1,0,1.6-.2l-1.8-2.5c-.3,0-.6,0-1,0h-.4v-.7h1l-.4-.6.6-.4.5.6c0,0,.3-.2.4-.3.5-.5.7-1.2.5-2v-.7c0,0,.2-.4.2-.4l2.4.3c-.3-.8-1-2.2-2.1-2.6h0c-.2,0-.5-.2-.8-.2-2.3,0-4.8,4.8-5.7,6.6h0c1.7-1.1,2.3-2.8,2.3-2.8l.7.2s-.7,2-2.6,3.3c.5.7,1.2,1.2,1.9,1.6v-3.4h.7v3.7c.6.2,1.3.3,2,.3h0ZM649.8,705.5c0-.3.3-.6.6-.6s.6.2.6.6-.2.6-.6.6-.6-.3-.6-.6Z"/>
    <path class="cls-1" d="M50.5,786.9l3,.6-7.4,34-2.9-.6,7.4-34h0ZM58,810.9h-8.1v-3h8.1v3ZM57.6,786.9l7.4,34-2.9.6-7.4-34,3-.6h0Z"/>
    <path class="cls-1" d="M156.3,804.1v16.8h-3v-9.8c-2.7,6.1-8.8,10.3-15.8,10.3s-17.4-7.9-17.4-17.6,7.8-17,17.4-17,17.3,7.8,17.3,17.3h1.5ZM151.7,804.1c0-7.8-6.4-14.3-14.3-14.3s-14.3,6.5-14.3,14.3,6.4,14.3,14.3,14.3,14.3-6.4,14.3-14.3Z"/>
    <path class="cls-1" d="M220.8,820.9h-3v-33.6h3v33.6ZM231,790.4h-8.1v-3h8.1v3ZM223,820.9v-3c3.3,0,6.1-2.8,6.1-6.1s-2.8-6.1-6.1-6.1v-3.1c5,0,9.1,4.1,9.1,9.2s-4.1,9.1-9.1,9.1h0Z"/>
    <path class="cls-1" d="M302.7,787.3h3v33.6h-3v-33.6ZM317,811.8c0,5-4.1,9.1-9.1,9.1v-3c3.3,0,6.1-2.8,6.1-6.1s-2.8-6.1-6.1-6.1v-3.1c3.3,0,6.1-2.8,6.1-6.1s-2.8-6.1-6.1-6.1v-3.1c5,0,9.1,4.1,9.1,9.2s-1.6,6-4.1,7.6c2.5,1.6,4.1,4.5,4.1,7.7h0Z"/>
    <path class="cls-1" d="M391.9,820.9h-3v-33.6h3v33.6ZM402.1,790.4h-8.1v-3h8.1v3Z"/>
    <path class="cls-1" d="M490.8,827.4h-3v-6.5h-18.1v6.5h-3v-9.5h24.2v9.5h-.1ZM472.5,816l-2.8-1.1,11-27.6,2.8,1.1-11,27.6ZM487.8,815.8h-3v-28.4h3v28.4Z"/>
    <path class="cls-1" d="M561.4,799.8h10.2v3h-10.2v18.1h-3v-33.6h3v12.5ZM571.7,787.3v3h-8.1v-3h8.1ZM563.6,817.9h8.1v3h-8.1v-3Z"/>
    <path class="cls-1" d="M646.6,799.8h10.2v3h-10.2v18.1h-3v-33.6h3v12.5ZM645,782.5c0-.9.7-1.7,1.7-1.7s1.7.8,1.7,1.7-.8,1.7-1.7,1.7-1.7-.7-1.7-1.7ZM656.8,787.3v3h-8.1v-3h8.1ZM648.7,817.9h8.1v3h-8.1v-3ZM651.2,782.5c0-.9.8-1.7,1.7-1.7s1.6.8,1.6,1.7-.8,1.7-1.6,1.7-1.8-.7-1.7-1.7Z"/>
    <path class="cls-1" d="M717,819.9l11.7-18.4,2.5,1.6-11.7,18.4-2.5-1.6ZM722.2,786.8l8.9,11.4-2.4,1.8-8.9-11.5,2.4-1.8h0ZM735.8,820.9h-3v-33.6h3v33.6ZM751.7,819.9l-2.5,1.6-11.7-18.4,2.5-1.6,11.7,18.4ZM746.5,786.8l2.4,1.8-8.9,11.5-2.4-1.8,8.9-11.4h0Z"/>
    <path class="cls-1" d="M828.8,812.1c0,5.2-4.3,9.4-9.5,9.4s-9.4-4.2-9.4-9.4h3c0,3.5,2.9,6.4,6.4,6.4s6.4-2.9,6.4-6.4-2.9-6.4-6.4-6.4v-3.1c3.5,0,6.4-2.9,6.4-6.4s-2.9-6.4-6.4-6.4-6.4,2.9-6.4,6.4h-3c0-5.2,4.2-9.4,9.4-9.4s9.5,4.2,9.5,9.4-1.7,6.2-4.3,7.9c2.6,1.7,4.3,4.6,4.3,7.9h0Z"/>
    <path class="cls-1" d="M897,820.9h-3v-33.6h3v33.6ZM901,816.9l-2.9-1.2,9.8-24.7,2.8,1.1-9.7,24.7h0ZM914.8,820.9h-3v-33.6h3v33.6Z"/>
    <path class="cls-1" d="M46.6,906.5h-3v-33.6h3v33.6ZM53.9,871.6c-5.1,0-9.2-4.1-9.2-9.2h3c0,3.4,2.8,6.1,6.1,6.1s6.1-2.7,6.1-6.1h3c0,5.1-4.1,9.2-9.2,9.2h.2ZM50.6,902.5l-2.9-1.2,9.8-24.7,2.8,1.1-9.7,24.7h0ZM64.4,906.5h-3v-33.6h3v33.6Z"/>
    <path class="cls-1" d="M133,906.5h-3v-33.6h3v33.6ZM151.2,905.2l-2.4,1.8-14.1-18.3,2.4-1.8,14.1,18.3ZM146.8,871.8l2.1,2.1-12,11.6-2.1-2.1,12-11.6Z"/>
    <path class="cls-1" d="M214.5,907.1l-2.8-1.2,14-33.6,2.9,1.2-14,33.6h0ZM233.5,906.5h-3v-33.6h3v33.6Z"/>
    <path class="cls-1" d="M297.1,872.9v33.6h-3v-33.6h3ZM305.6,907.1l-7.4-34.1,2.9-.6,7.4,34.1-3,.6h.1ZM312.7,907.1l-3-.6,7.4-34.1,2.9.6-7.4,34.1h.1ZM324.2,872.9v33.6h-3v-33.6h3Z"/>
    <path class="cls-1" d="M377,907.1l-3.2-.5,5.7-33.6,3.1.5-5.6,33.6ZM390.9,907.1l-7.2-33.8,2.9-.6,7.3,33.8-3,.6h0ZM398,907.1l-3-.6,7.3-33.9,2.9.6-7.2,33.9h0ZM411.4,907l-5.1-33.6,3.2-.4,5.1,33.5-3.2.5Z"/>
    <path class="cls-1" d="M473,906.5h-3v-33.6h3v33.6ZM483.3,891.3h-8.2v-3h8.2v3ZM488.5,906.5h-3v-33.6h3v33.6Z"/>
    <path class="cls-1" d="M564.3,907.1c-9.6,0-17.4-7.9-17.4-17.6s7.8-17,17.4-17,17.3,7.8,17.3,17.3-7.8,17.3-17.3,17.3ZM564.3,875.5c-7.9,0-14.3,6.5-14.3,14.3s6.4,14.3,14.3,14.3,14.3-6.4,14.3-14.3-6.4-14.3-14.3-14.3Z"/>
    <path class="cls-1" d="M658.6,876h-18.5v-3h18.5v3ZM643,906.5h-3v-28.4h3v28.4ZM658.6,906.5h-3v-28.4h3v28.4Z"/>
    <path class="cls-1" d="M731,906.5h-3v-33.6h3v33.6ZM733.2,891.2v-3c3.3,0,6.1-2.8,6.1-6.1s-2.8-6.1-6.1-6.1v-3.1c5,0,9.1,4.1,9.1,9.2s-4.1,9.1-9.1,9.1h0Z"/>
    <path class="cls-1" d="M821.6,907.1c-4.5,0-8.9-1.8-12.3-5.1-6.6-6.7-6.6-17.8,0-24.4,6.8-6.8,17.7-6.8,24.4,0l-2.2,2.2c-5.5-5.5-14.4-5.5-20,0-5.5,5.6-5.5,14.4,0,20,5.6,5.5,14.5,5.5,20,0l2.2,2.3c-3.4,3.4-7.8,5.1-12.1,5.1h0Z"/>
    <path class="cls-1" d="M913.7,876h-18.5v-3h18.5v3ZM905.9,906.5h-3v-28.4h3v28.4Z"/>
    <path class="cls-1" d="M55.3,974l-12-13.9,2.4-2.1,12,13.9-2.4,2h0ZM62.1,958.5v24.8c0,5.1-4.1,9.2-9.2,9.2s-9.2-4.1-9.2-9.2h3c0,3.4,2.8,6.1,6.1,6.1s6.1-2.7,6.1-6.1v-24.8h3.2Z"/>
    <path class="cls-1" d="M135.4,988.4c-7.3,0-13.2-5.9-13.2-13.1s5.9-13.2,13.2-13.2v3c-5.6,0-10.1,4.6-10.1,10.1s4.6,10.1,10.1,10.1v3h0ZM140.6,992.1h-3v-33.6h3v33.6ZM142.7,988.4v-3c5.6,0,10.1-4.5,10.1-10.1s-4.6-10.1-10.1-10.1v-3c7.2,0,13.2,5.9,13.2,13.2s-5.9,13.1-13.2,13.1h0Z"/>
    <path class="cls-1" d="M216.5,992.6l-2.7-1.4,17.6-33.3,2.7,1.4-17.6,33.2h0ZM220.2,971.5l-6.3-12,2.7-1.4,6.3,12-2.7,1.4ZM231.7,992.6l-6.6-12,2.7-1.4,6.5,12.1-2.6,1.4h0Z"/>
    <path class="cls-1" d="M320.7,983.4v15.3h-3v-14.3c-.5,4.7-4.4,8.3-9.1,8.3s-9.2-4.1-9.2-9.2v-24.8h3v24.8c0,3.4,2.8,6.1,6.1,6.1s6.1-2.7,6.1-6.1v-24.8h3v24.8h3.1Z"/>
    <path class="cls-1" d="M394.1,976.8h4.2v3h-4.2c-5,0-9.2-4.1-9.2-9.1v-12.1h3v12.1c0,3.4,2.8,6.1,6.1,6.1h.1ZM403.4,958.5v33.6h-3v-33.6h3Z"/>
    <path class="cls-1" d="M468.9,987h-3.1v-28.4h3.1v28.4ZM492.6,992.1h-26.7v-3h26.7v3ZM480.6,987h-3.1v-28.4h3.1v28.4ZM492.6,987h-3.1v-28.4h3.1v28.4Z"/>
    <path class="cls-1" d="M552.6,987h-3.1v-28.4h3.1v28.4ZM580.7,992.1h-31.3v-3h31.3v3ZM564.3,987h-3.1v-28.4h3.1v28.4ZM576.3,987h-3.1v-28.4h3.1v28.4ZM580.7,998.6h-3v-4.3h3v4.3Z"/>
    <path class="cls-1" d="M643.9,961.6h-6.9v-3h6.9v3ZM649.1,992.1h-3v-33.6h3v33.6ZM651.3,992.1v-3c3.3,0,6.1-2.8,6.1-6.1s-2.8-6.1-6.1-6.1v-3.1c5,0,9.1,4.1,9.1,9.2s-4.1,9.1-9.1,9.1h0Z"/>
    <path class="cls-1" d="M727.2,992.1h-3v-33.6h3v33.6ZM729.3,992.1v-3c3.3,0,6.1-2.8,6.1-6.1s-2.8-6.1-6.1-6.1v-3.1c5,0,9.1,4.1,9.1,9.2s-4.1,9.1-9.1,9.1h0ZM744.5,992.1h-3v-33.6h3v33.6Z"/>
    <path class="cls-1" d="M815.9,992.1h-3v-33.6h3v33.6ZM818.1,992.1v-3c3.3,0,6.1-2.8,6.1-6.1s-2.8-6.1-6.1-6.1v-3.1c5,0,9.1,4.1,9.1,9.2s-4.1,9.1-9.1,9.1h0Z"/>
    <path class="cls-1" d="M902.1,992.7c-4.4,0-8.8-1.8-12.1-5.1l2.2-2.3c5.5,5.5,14.4,5.5,20,0,5.5-5.5,5.5-14.4,0-20-5.6-5.5-14.5-5.5-20,0l-2.2-2.2c6.7-6.8,17.7-6.8,24.4,0,6.6,6.6,6.6,17.7,0,24.4-3.4,3.4-7.8,5.1-12.3,5.1h0ZM914.2,976.7h-11v-3h11v3Z"/>
    <path class="cls-1" d="M35.1,1077.7h-3v-33.6h3v33.6ZM41.7,1062.5h-5.4v-3h5.4v3ZM60.3,1078.3c-9.6,0-17.4-7.9-17.4-17.6s7.8-17,17.4-17,17.3,7.8,17.3,17.3-7.8,17.3-17.3,17.3h0ZM60.3,1046.7c-7.9,0-14.3,6.5-14.3,14.3s6.4,14.3,14.3,14.3,14.3-6.4,14.3-14.3-6.4-14.3-14.3-14.3Z"/>
    <path class="cls-1" d="M140.5,1063.1l2.2,2-12.5,13.5-2.2-2,12.5-13.5ZM147.1,1052.8v24.9h-3v-18.1c-1.6,1.4-3.7,2.3-6,2.3-5.1,0-9.1-4.1-9.1-9.1s4.1-9.1,9.2-9.1,9,4.1,9,9.1h0ZM144.1,1052.8c0-3.3-2.8-6-6-6s-6.1,2.7-6.1,6,2.7,6.1,6.1,6.1,6-2.7,6-6.1Z"/>
    <path class="cls-1" d="M216.8,1078.3l-2.4-1.9,10-12.5,2.4,2-10,12.4ZM225.6,1062.5c-5,0-9.2-4.1-9.2-9.2s4.1-9.2,9.2-9.2v3.1c-3.3,0-6,2.7-6,6s2.7,6.1,6,6.1v3.1h0ZM230.7,1077.7h-3v-33.6h3v33.6Z"/>
    <path class="cls-1" d="M63.1,1138.2v16.5c0,5-4,9-9.1,9s-9-4-9-9v-16.5c0-4.9,4.1-9,9-9s9.1,4.1,9.1,9ZM60,1138.2c0-3.3-2.7-6-6-6s-6,2.7-6,6v16.5c0,3.3,2.7,6,6,6s6-2.7,6-6v-16.5Z"/>
    <path class="cls-1" d="M129.2,1142.5v-3c5.3,0,9.7-4.4,9.7-9.7h3c0,7.1-5.7,12.8-12.8,12.8h.1ZM149.8,1163.3h-18.6v-3h18.6v3ZM141.8,1158.1h-3.1v-18h3.1v18Z"/>
    <path class="cls-1" d="M217.1,1159.2l-2.3-2.2,15.9-17.5,2.2,2.2-15.9,17.5h.1ZM218.1,1138.4h-3.1c0-5,4.1-9.1,9.2-9.1s9.1,4.1,9.1,9.1h-3.1c0-3.4-2.7-6-6-6s-6.1,2.6-6.1,6h0ZM215,1160.3h18.3v3h-18.3v-3Z"/>
    <path class="cls-1" d="M309.2,1163.8c-5.2,0-9.5-4.2-9.5-9.4h3c0,3.5,2.9,6.3,6.4,6.3s6.4-2.9,6.4-6.3-2.9-6.5-6.4-6.5v-3c5.2,0,9.4,4.2,9.4,9.5s-4.2,9.4-9.4,9.4h.1ZM318.8,1132.8h-17.6v-3.1h17.6v3.1ZM305.7,1146.5l-2.2-2.2,10.9-10.6,2.1,2.2-10.8,10.5h0Z"/>
    <path class="cls-1" d="M395.8,1130.2l2.2,2.1-12.6,14.2-2.2-2.1,12.7-14.2h-.1ZM383.3,1147.2h13.5v3h-13.5v-3ZM404.3,1150.1h-2.7v13.2h-3.1v-33.6h3.1v17.4h2.7v3Z"/>
    <path class="cls-1" d="M479.1,1163.9c-5.2,0-9.5-4.2-9.5-9.5h3c0,3.6,2.9,6.4,6.4,6.4s6.4-2.9,6.4-6.4-2.9-6.4-6.4-6.4h-2.5v-3h2.5c5.2,0,9.5,4.3,9.5,9.5s-4.3,9.5-9.5,9.5h.1ZM474.3,1148.1l-3.1-.4,2.1-13.4,3,.4-2.1,13.4h.1ZM488.8,1132.8h-15.4v-3h15.4v3Z"/>
    <path class="cls-1" d="M574.3,1153.9c0,5.5-4.4,9.9-9.8,9.9s-9.9-4.4-9.9-9.9.4-3.3,1.2-4.7h0v-.2l11-19.7,2.7,1.5-7.6,13.5c.8-.2,1.6-.3,2.4-.3,5.5,0,9.8,4.4,9.8,9.8h.2ZM571.2,1153.9c0-3.6-3.1-6.8-6.8-6.8s-6.9,3.2-6.9,6.8,3.1,6.9,6.9,6.9,6.8-3.1,6.8-6.9Z"/>
    <path class="cls-1" d="M658.6,1135.3l-17.4,28.4-2.5-1.6,7.3-12h-6v-3h7.8l8.2-13.3,2.5,1.5h.1ZM659.4,1129.7v3h-19.3v-3h19.3ZM653.7,1147.1h5.7v3h-5.7v-3Z"/>
    <path class="cls-1" d="M743.7,1154.5c0,5.2-4.2,9.4-9.5,9.4s-9.4-4.2-9.4-9.4,1.7-6.2,4.3-7.9c-2.6-1.7-4.3-4.6-4.3-7.9,0-5.2,4.2-9.4,9.4-9.4s9.5,4.2,9.5,9.4-1.7,6.2-4.3,7.9c2.6,1.7,4.3,4.6,4.3,7.9ZM734.3,1145c3.6,0,6.4-2.9,6.4-6.4s-2.9-6.3-6.4-6.3-6.3,2.9-6.3,6.3,2.9,6.4,6.3,6.4ZM740.7,1154.5c0-3.5-2.9-6.4-6.4-6.4s-6.3,2.9-6.3,6.4,2.9,6.3,6.3,6.3,6.4-2.9,6.4-6.3Z"/>
    <path class="cls-1" d="M828,1144h0c0,0-11,19.8-11,19.8l-2.7-1.5,7.6-13.5c-.8.2-1.6.3-2.4.3-5.5,0-9.8-4.4-9.8-9.8s4.4-9.9,9.8-9.9,9.9,4.4,9.9,9.9-.4,3.3-1.2,4.7h-.2ZM819.3,1146c3.7,0,6.9-3.2,6.9-6.8s-3.1-6.9-6.9-6.9-6.8,3.1-6.8,6.9,3.1,6.8,6.8,6.8Z"/>
    <path class="cls-1" d="M51.8,1247.5c0-1,.8-1.8,1.9-1.8s1.9.9,1.8,1.8c0,1.1-.9,1.8-1.8,1.8s-1.9-.8-1.9-1.8Z"/>
    <path class="cls-1" d="M137.6,1254.2l-2.4-1.8,5-6.8,2.4,1.8-5,6.9h0Z"/>
    <path class="cls-1" d="M221.5,1235.5c0-1.2,1-2.3,2.4-2.3s2.4,1.1,2.3,2.3c0,1.3-1.1,2.3-2.3,2.3s-2.4-1-2.4-2.3ZM221.5,1247.5c0-1.2,1-2.3,2.4-2.3s2.4,1.1,2.3,2.3c0,1.3-1.1,2.3-2.3,2.3s-2.4-1-2.4-2.3Z"/>
    <path class="cls-1" d="M307.4,1254.2l-2.4-1.8,5-6.8,2.4,1.8-5,6.9h0ZM309.7,1238.3c1.2,0,2.3-1,2.3-2.3s-1.1-2.4-2.3-2.4-2.4,1.1-2.4,2.4,1.1,2.3,2.4,2.3Z"/>
    <path class="cls-1" d="M391.8,1247.5c0-1.2,1-2.3,2.4-2.3s2.4,1.1,2.3,2.3c0,1.3-1.1,2.3-2.3,2.3s-2.4-1-2.4-2.3ZM395.7,1215.3h-3v26.9h3v-26.9Z"/>
    <path class="cls-1" d="M469.8,1224.3c0-5.2,4.2-9.5,9.5-9.5s9.4,4.3,9.4,9.5-4.2,9.4-9.4,9.4v-3.1c3.5,0,6.4-2.8,6.4-6.3s-2.9-6.4-6.4-6.4-6.4,2.9-6.4,6.4h-3.1ZM479.1,1249.8c1.2,0,2.3-1,2.3-2.3s-1.1-2.3-2.3-2.3-2.4,1.1-2.4,2.3,1,2.3,2.4,2.3Z"/>
    <path class="cls-1" d="M554.7,1224.1v-2.9c3.3,0,5.9-2.6,5.9-5.9h3.1c0,4.8-4,8.8-8.9,8.8h0ZM563.6,1234.4h-3.1c0-3.3-2.5-5.8-5.9-5.8v-3.1c4.9,0,8.9,3.9,8.9,8.9h0ZM573.8,1224.1c-4.8,0-8.7-4-8.7-8.8h2.9c0,3.2,2.6,5.9,5.8,5.9v2.9ZM568,1234.4h-2.9c0-4.9,4-8.9,8.7-8.9v3.1c-3.2,0-5.8,2.5-5.8,5.8Z"/>
    <path class="cls-1" d="M641.8,1249.4l-2.7-1.4,17.6-33.3,2.7,1.4-17.6,33.2h0Z"/>
    <path class="cls-1" d="M741.8,1249.4l-17.6-33.2,2.7-1.4,17.6,33.3-2.7,1.4h0Z"/>
    <path class="cls-1" d="M818.5,1220.1v29.5c0,3.2,2.6,5.8,5.8,5.8v3c-4.8,0-8.8-4-8.8-8.8v-29.5c0-4.9,4-8.9,8.8-8.9v3c-3.2,0-5.8,2.6-5.8,5.9Z"/>
    <path class="cls-1" d="M908.3,1220.1v29.5c0,4.8-4,8.8-8.8,8.8v-3c3.2,0,5.8-2.6,5.8-5.8v-29.5c0-3.3-2.6-5.9-5.8-5.9v-3c4.8,0,8.8,3.9,8.8,8.9Z"/>
    <path class="cls-1" d="M52.5,1343.5v-46.9h3v46.9h-3Z"/>
    <path class="cls-1" d="M147.2,1324.4c0,3.9-3,7.3-6.7,8.1v2.1h-3v-2.1c-3.7-.7-6.7-4.2-6.7-8.1h3c0,3,2.2,5.2,5.1,5.2s5.2-2.2,5.2-5.2-2.2-5.2-5.2-5.2c-4.4,0-8.2-3.7-8.2-8.1s3-7.3,6.7-8.1v-2.1h3v2.1c3.7.8,6.7,4.2,6.7,8.1h-3c0-3-2.2-5.2-5.2-5.2s-5.1,2.3-5.1,5.2,2.2,5.1,5.1,5.1c4.4,0,8.2,3.8,8.2,8.2h0Z"/>
    <path class="cls-1" d="M234,1300.9v3c-7.6,0-13.8,6.2-13.8,13.9s6.2,13.9,13.8,13.9v3c-7.8,0-14.4-5.3-16.3-12.5h-3.5v-3h2.9v-2.6h-2.9v-3h3.5c1.9-7.2,8.4-12.5,16.3-12.5v-.2ZM222.5,1313.5h11.4v3h-11.4v-3ZM222.5,1319.1h11.4v3h-11.4v-3Z"/>
    <path class="cls-1" d="M304.8,1331.5h13.1v3h-19v-3h3v-11h-3v-3h3v-7.8c0-4.9,3.9-8.7,8.7-8.7s8.8,3.8,8.8,8.7h-3c0-3.2-2.5-5.8-5.8-5.8s-5.8,2.6-5.8,5.8v21.8h0ZM307.1,1317.5h6.3v3h-6.3v-3Z"/>
    <path class="cls-1" d="M393.8,1323h7.7v3h-7.7v8.5h-3v-8.5h-5.8v-3h5.8v-3.7h-5.8v-3h5.8v-15.3h3v22ZM405.1,1310.1c0,5-4.1,9.1-9.1,9.1v-3c3.3,0,6.1-2.8,6.1-6.1s-2.8-6.1-6.1-6.1v-3.1c5,0,9.1,4.1,9.1,9.2Z"/>
    <path class="cls-1" d="M478.3,1309c0,4.6-3.8,8.4-8.4,8.4s-8.4-3.8-8.4-8.4,3.8-8.4,8.4-8.4,8.4,3.9,8.4,8.4ZM475.2,1309c0-3-2.4-5.4-5.4-5.4s-5.4,2.4-5.4,5.4,2.4,5.4,5.4,5.4,5.4-2.4,5.4-5.4ZM489.2,1301.8l-2.7-1.4-17.6,33.3,2.7,1.4,17.6-33.2h0ZM497,1326.6c0,4.6-3.8,8.4-8.4,8.4s-8.4-3.8-8.4-8.4,3.8-8.4,8.4-8.4,8.4,3.9,8.4,8.4ZM494,1326.6c0-3-2.4-5.4-5.4-5.4s-5.4,2.4-5.4,5.4,2.4,5.4,5.4,5.4,5.4-2.4,5.4-5.4Z"/>
    <path class="cls-1" d="M571.9,1327.3l6,5-2,2.4-6.1-5.1-2.4,2.7c-1.8,1.8-4.1,2.7-6.6,2.7-5.2,0-9.4-4.3-9.4-9.4s.6-4.1,1.9-5.8l.8-1.1,2.4,1.9-.8,1c-.8,1.1-1.2,2.4-1.2,3.9,0,3.5,2.9,6.3,6.3,6.3s3.3-.6,4.5-1.8h0c0,0,2.1-2.5,2.1-2.5l-13.2-11.1c-1.9-1.7-2.9-4.2-2.9-6.8,0-5.2,4.2-9.4,9.4-9.4s9.5,4.2,9.5,9.4-.5,3.7-1.6,5.3l-.4.6-3,3.7-2.4-1.9,3.3-4.2c.7-1,1.1-2.3,1.1-3.5,0-3.5-2.9-6.4-6.4-6.4s-6.3,2.9-6.3,6.4.7,3.4,2,4.6l13.2,10.9,6.2-7.1,2.3,2-6.2,7.1-.2.2Z"/>
    <path class="cls-1" d="M627.8,1334.5v-33.6h3v33.6h-3ZM641.6,1330.5l-9.7-24.7,2.8-1.1,9.8,24.7-2.9,1.2h0ZM645.6,1334.5v-33.6h3v33.6h-3ZM661.3,1300.9c-5.2,0-9.5,4.3-9.5,9.5s4.2,9.5,9.5,9.5,9.5-4.2,9.5-9.5-4.2-9.5-9.5-9.5ZM653.1,1322.3v3.1h16.6v-3.1h-16.6ZM661.3,1316.7c-3.5,0-6.3-2.8-6.3-6.3s2.8-6.3,6.3-6.3,6.3,2.9,6.3,6.3-2.9,6.3-6.3,6.3Z"/>
    <path class="cls-1" d="M739.2,1322.7h-9.7v-3h9.7v3Z"/>
    <path class="cls-1" d="M826.6,1322.7h-14.5v-3h14.5v3Z"/>
    <path class="cls-1" d="M916.4,1322.7h-24v-3h24v3Z"/>
    <path class="cls-1" d="M61.3,1425.7h-14.5v-3h14.5v3Z"/>
    <path class="cls-1" d="M139.6,1416.4h-3.1c0-4.5-3.6-8-8-8v-3c4.5,0,8-3.6,8-8h3.1c0,4-2.2,7.5-5.5,9.5,3.3,1.9,5.5,5.5,5.5,9.6h0ZM149.6,1416.4h-3.1c0-4.5-3.6-8-8-8v-3c4.5,0,8-3.6,8-8h3.1c0,4-2.2,7.5-5.5,9.5,3.3,1.9,5.5,5.5,5.5,9.6h0Z"/>
    <path class="cls-1" d="M224.6,1408.3c-4.5,0-8,3.6-8,8h-3.1c0-4.1,2.2-7.6,5.5-9.6-3.3-1.9-5.5-5.5-5.5-9.5h3.1c0,4.3,3.6,8,8,8v3h0ZM234.7,1405.3v3c-4.5,0-8,3.6-8,8h-3.1c0-4.1,2.2-7.6,5.5-9.6-3.3-1.9-5.5-5.5-5.5-9.5h3.1c0,4.3,3.6,8,8,8h0Z"/>
    <path class="cls-1" d="M318.6,1394.6v3.1c-4,0-7.5-2.2-9.5-5.5-1.9,3.3-5.5,5.5-9.6,5.5v-3.1c4.5,0,8-3.6,8-8h3c0,4.5,3.6,8,8,8h.1ZM307.6,1396.1h3v24h-3v-24Z"/>
    <path class="cls-1" d="M403.7,1409.1v3.1c-4.3,0-8,3.6-8,8h-3c0-4.5-3.6-8-8-8v-3.1c4.1,0,7.6,2.2,9.6,5.5,1.9-3.3,5.5-5.5,9.5-5.5h-.1ZM395.7,1410.5h-3v-24h3v24Z"/>
    <path class="cls-1" d="M486.4,1408.3h-24v-3h24v3ZM496,1405.3v3c-4.5,0-8,3.6-8,8h-3.1c0-4.1,2.2-7.6,5.5-9.6-3.3-1.9-5.5-5.5-5.5-9.5h3.1c0,4.3,3.6,8,8,8h0Z"/>
    <path class="cls-1" d="M558.5,1416.4h-3.1c0-4.5-3.6-8-8-8v-3c4.5,0,8-3.6,8-8h3.1c0,4-2.2,7.5-5.5,9.5,3.3,1.9,5.5,5.5,5.5,9.6h0ZM581.1,1405.3v3h-24v-3h24Z"/>
    <path class="cls-1" d="M655.7,1392.9c0,3.5-2.9,6.4-6.4,6.4s-6.4-2.9-6.4-6.4,2.9-6.4,6.4-6.4,6.4,2.9,6.4,6.4ZM652.7,1392.9c0-1.9-1.5-3.5-3.5-3.5s-3.5,1.5-3.5,3.5,1.5,3.5,3.5,3.5,3.5-1.5,3.5-3.5Z"/>
    <path class="cls-1" d="M734.2,1386.6c2.7,0,4.9,2.2,5,4.9v23.7c0,2.8-2,4.9-4.8,4.9s-4.9-2.2-4.9-4.9v-23.7c-.2-2.7,2.1-4.9,4.7-4.9ZM733,1392.8l.5-.3-2.4-2.5-.4.4,2.3,2.4h0ZM731,1400.9l-.3.5,6.9,2.9.2-.6-6.8-2.8h0ZM732.7,1408.6c-1.1,0-1.9.8-1.7,1.8,0,1.1.8,1.8,1.8,1.8s1.9-.8,1.9-1.8-.3-.9-.5-1.2h3.6v-.6h-5.1ZM731,1393.2v.6h6.8v-.6h-6.8ZM736,1394.6v.6h-5v.6h5c.7,0,1.2.6,1.2,1.2s-.6,1.3-1.2,1.3h-5v.6h5c1,0,1.9-.8,1.9-1.9s-.7-1.7-1.7-1.8h1.6v-.6h-1.8ZM731,1399.9v.6h6.8v-.6h-6.8ZM731.5,1406.4v-1.5h-.6v1.5h.6ZM731,1406.8v.6h6.8v-.6h-6.8ZM734.4,1414c-.2-.5-.9-.8-1.6-.8-1.1,0-1.8.8-1.8,1.8s.8,2,1.8,2v-.6c-.6,0-1.2-.6-1.2-1.3s.6-1.2,1.2-1.2,1.3.6,1.3,1.2h.5c0-.6.6-1.2,1.4-1.2s1.2.6,1.2,1.2-.6,1.3-1.2,1.3v.6c.9,0,1.8-.9,1.8-2s-.9-1.8-1.8-1.8-1.3.3-1.7.8h0ZM732.7,1409.2c.7,0,1.3.5,1.3,1.2s-.5,1.2-1.2,1.2-1.2-.6-1.2-1.2.5-1.2,1.2-1.2h0ZM737.4,1389.5l-3.6,2.8.3.5,3.7-2.8-.4-.5ZM735.9,1404.5c-1,0-1.9.8-1.9,1.8h.7c0-.6.5-1.2,1.2-1.2s1.3.6,1.3,1.2h.6c0-1-.9-1.8-1.9-1.8h0ZM735.2,1409.5l-.3.3,2.7,2.6.4-.4-2.9-2.5h0Z"/>
  </g>
  <path class="cls-1" d="M12,504.8v936.1h936v-.2h0V504.8H12ZM97.1,1440.3H12.7v-84.4h84.4v84.4ZM97.1,1355.2H12.7v-84.4h84.4v84.4ZM97.1,1270.2H12.7v-84.4h84.4v84.4ZM97.1,1185.2H12.7v-84.4h84.4v84.4ZM97.1,1100.1H12.7v-84.4h84.4v84.4ZM97.1,1015.1H12.7v-84.4h84.4v84.4ZM97.1,930H12.7v-84.4h84.4v84.4ZM97.1,845H12.7v-84.4h84.4v84.4ZM97.1,760H12.7v-84.4h84.4v84.4ZM97.1,674.9H12.7v-84.4h84.4v84.4ZM97.1,589.9H12.7v-84.4h84.4v84.4ZM182.1,1440.3h-84.4v-84.4h84.4v84.4ZM182.1,1355.2h-84.4v-84.4h84.4v84.4ZM182.1,1270.2h-84.4v-84.4h84.4v84.4ZM182.1,1185.2h-84.4v-84.4h84.4v84.4ZM182.1,1100.1h-84.4v-84.4h84.4v84.4ZM182.1,1015.1h-84.4v-84.4h84.4v84.4ZM182.1,930h-84.4v-84.4h84.4v84.4ZM182.1,845h-84.4v-84.4h84.4v84.4ZM182.1,760h-84.4v-84.4h84.4v84.4ZM182.1,674.9h-84.4v-84.4h84.4v84.4ZM182.1,589.9h-84.4v-84.4h84.4v84.4ZM267.2,1440.3h-84.4v-84.4h84.4v84.4ZM267.2,1355.2h-84.4v-84.4h84.4v84.4ZM267.2,1270.2h-84.4v-84.4h84.4v84.4ZM267.2,1185.2h-84.4v-84.4h84.4v84.4ZM267.2,1100.1h-84.4v-84.4h84.4v84.4ZM267.2,1015.1h-84.4v-84.4h84.4v84.4ZM267.2,930h-84.4v-84.4h84.4v84.4ZM267.2,845h-84.4v-84.4h84.4v84.4ZM267.2,760h-84.4v-84.4h84.4v84.4ZM267.2,674.9h-84.4v-84.4h84.4v84.4ZM267.2,589.9h-84.4v-84.4h84.4v84.4ZM352.2,1440.3h-84.4v-84.4h84.4v84.4ZM352.2,1355.2h-84.4v-84.4h84.4v84.4ZM352.2,1270.2h-84.4v-84.4h84.4v84.4ZM352.2,1185.2h-84.4v-84.4h84.4v84.4ZM352.2,1100.1h-84.4v-84.4h84.4v84.4ZM352.2,1015.1h-84.4v-84.4h84.4v84.4ZM352.2,930h-84.4v-84.4h84.4v84.4ZM352.2,845h-84.4v-84.4h84.4v84.4ZM352.2,760h-84.4v-84.4h84.4v84.4ZM352.2,674.9h-84.4v-84.4h84.4v84.4ZM352.2,589.9h-84.4v-84.4h84.4v84.4ZM437.2,1440.3h-84.4v-84.4h84.4v84.4ZM437.2,1355.2h-84.4v-84.4h84.4v84.4ZM437.2,1270.2h-84.4v-84.4h84.4v84.4ZM437.2,1185.2h-84.4v-84.4h84.4v84.4ZM437.2,1100.1h-84.4v-84.4h84.4v84.4ZM437.2,1015.1h-84.4v-84.4h84.4v84.4ZM437.2,930h-84.4v-84.4h84.4v84.4ZM437.2,845h-84.4v-84.4h84.4v84.4ZM437.2,760h-84.4v-84.4h84.4v84.4ZM437.2,674.9h-84.4v-84.4h84.4v84.4ZM437.2,589.9h-84.4v-84.4h84.4v84.4ZM522.3,1440.3h-84.4v-84.4h84.4v84.4ZM522.3,1355.2h-84.4v-84.4h84.4v84.4ZM522.3,1270.2h-84.4v-84.4h84.4v84.4ZM522.3,1185.2h-84.4v-84.4h84.4v84.4ZM522.3,1100.1h-84.4v-84.4h84.4v84.4ZM522.3,1015.1h-84.4v-84.4h84.4v84.4ZM522.3,930h-84.4v-84.4h84.4v84.4ZM522.3,845h-84.4v-84.4h84.4v84.4ZM522.3,760h-84.4v-84.4h84.4v84.4ZM522.3,674.9h-84.4v-84.4h84.4v84.4ZM522.3,589.9h-84.4v-84.4h84.4v84.4ZM607.3,1440.3h-84.4v-84.4h84.4v84.4ZM607.3,1355.2h-84.4v-84.4h84.4v84.4ZM607.3,1270.2h-84.4v-84.4h84.4v84.4ZM607.3,1185.2h-84.4v-84.4h84.4v84.4ZM607.3,1100.1h-84.4v-84.4h84.4v84.4ZM607.3,1015.1h-84.4v-84.4h84.4v84.4ZM607.3,930h-84.4v-84.4h84.4v84.4ZM607.3,845h-84.4v-84.4h84.4v84.4ZM607.3,760h-84.4v-84.4h84.4v84.4ZM607.3,674.9h-84.4v-84.4h84.4v84.4ZM607.3,589.9h-84.4v-84.4h84.4v84.4ZM692.4,1440.3h-84.4v-84.4h84.4v84.4ZM692.4,1355.2h-84.4v-84.4h84.4v84.4ZM692.4,1270.2h-84.4v-84.4h84.4v84.4ZM692.4,1185.2h-84.4v-84.4h84.4v84.4ZM692.4,1100.1h-84.4v-84.4h84.4v84.4ZM692.4,1015.1h-84.4v-84.4h84.4v84.4ZM692.4,930h-84.4v-84.4h84.4v84.4ZM692.4,845h-84.4v-84.4h84.4v84.4ZM692.4,760h-84.4v-84.4h84.4v84.4ZM692.4,674.9h-84.4v-84.4h84.4v84.4ZM692.4,589.9h-84.4v-84.4h84.4v84.4ZM777.4,1440.3h-84.4v-84.4h84.4v84.4ZM777.4,1355.2h-84.4v-84.4h84.4v84.4ZM777.4,1270.2h-84.4v-84.4h84.4v84.4ZM777.4,1185.2h-84.4v-84.4h84.4v84.4ZM777.4,1100.1h-84.4v-84.4h84.4v84.4ZM777.4,1015.1h-84.4v-84.4h84.4v84.4ZM777.4,930h-84.4v-84.4h84.4v84.4ZM777.4,845h-84.4v-84.4h84.4v84.4ZM777.4,760h-84.4v-84.4h84.4v84.4ZM777.4,674.9h-84.4v-84.4h84.4v84.4ZM777.4,589.9h-84.4v-84.4h84.4v84.4ZM862.4,1440.3h-84.4v-84.4h84.4v84.4ZM862.4,1355.2h-84.4v-84.4h84.4v84.4ZM862.4,1270.2h-84.4v-84.4h84.4v84.4ZM862.4,1185.2h-84.4v-84.4h84.4v84.4ZM862.4,1100.1h-84.4v-84.4h84.4v84.4ZM862.4,1015.1h-84.4v-84.4h84.4v84.4ZM862.4,930h-84.4v-84.4h84.4v84.4ZM862.4,845h-84.4v-84.4h84.4v84.4ZM862.4,760h-84.4v-84.4h84.4v84.4ZM862.4,674.9h-84.4v-84.4h84.4v84.4ZM862.4,589.9h-84.4v-84.4h84.4v84.4ZM947.5,1440.3h-84.4v-84.4h84.4v84.4ZM947.5,1355.2h-84.4v-84.4h84.4v84.4ZM947.5,1270.2h-84.4v-84.4h84.4v84.4ZM947.5,1185.2h-84.4v-84.4h84.4v84.4ZM947.5,1100.1h-84.4v-84.4h84.4v84.4ZM947.5,1015.1h-84.4v-84.4h84.4v84.4ZM947.5,930h-84.4v-84.4h84.4v84.4ZM947.5,845h-84.4v-84.4h84.4v84.4ZM947.5,760h-84.4v-84.4h84.4v84.4ZM947.5,674.9h-84.4v-84.4h84.4v84.4ZM947.5,589.9h-84.4v-84.4h84.4v84.4Z"/>
  <g>
    <path class="cls-1" d="M41.4,273.3v31c0,6.4-5.1,11.5-11.5,11.5s-11.5-5.2-11.5-11.5h3.8c0,4.3,3.5,7.7,7.7,7.7s7.7-3.4,7.7-7.7v-31h3.8ZM34.2,277.1h-10.8v-3.8h10.8v3.8Z"/>
    <path class="cls-1" d="M69.3,316c-11.9,0-21.7-9.9-21.7-22s9.8-21.3,21.7-21.3,21.7,9.7,21.7,21.7-9.7,21.7-21.7,21.7h0ZM69.3,276.5c-9.8,0-17.8,8.1-17.8,17.8s8,17.8,17.8,17.8,17.8-8,17.8-17.8-8-17.8-17.8-17.8Z"/>
    <path class="cls-1" d="M102.5,316l-9.2-43.3,3.7-.8,9.3,43.3-3.7.8h-.1ZM111.4,316l-3.7-.8,9.3-43.3,3.7.8-9.2,43.3h-.1Z"/>
    <path class="cls-1" d="M148.2,277.1h-23.2v-3.8h23.2v3.8ZM148.2,315.3h-23.2v-3.8h23.2v3.8ZM138.4,308.8h-3.8v-29.4h3.8v29.4Z"/>
    <path class="cls-1" d="M199.7,294.3v21h-3.8v-12.2c-3.4,7.6-11,12.9-19.8,12.9s-21.7-9.9-21.7-22,9.8-21.3,21.7-21.3,21.7,9.7,21.7,21.7h1.9ZM193.9,294.3c0-9.7-8-17.8-17.8-17.8s-17.8,8.1-17.8,17.8,8,17.8,17.8,17.8,17.8-8,17.8-17.8Z"/>
    <path class="cls-1" d="M211.7,273.3v42h-3.8v-42h3.8ZM224.5,311.5v3.8h-10.1v-3.8h10.1Z"/>
    <path class="cls-1" d="M269,316c-5.6,0-11.2-2.2-15.4-6.4-8.3-8.3-8.3-22.2,0-30.5,8.5-8.5,22.1-8.5,30.5,0l-2.8,2.7c-6.9-6.8-18.1-6.8-25,0-6.8,7-6.8,18.1,0,25,7,6.9,18.1,6.9,25,0l2.8,2.8c-4.2,4.2-9.7,6.4-15.2,6.4h.1Z"/>
    <path class="cls-1" d="M334.1,294.3v21h-3.8v-12.2c-3.4,7.6-11,12.9-19.8,12.9s-21.7-9.9-21.7-22,9.8-21.3,21.7-21.3,21.7,9.7,21.7,21.7h1.9,0ZM328.4,294.3c0-9.7-8-17.8-17.8-17.8s-17.8,8.1-17.8,17.8,8,17.8,17.8,17.8,17.8-8,17.8-17.8Z"/>
    <path class="cls-1" d="M346.2,273.3v42h-3.8v-42h3.8ZM359,311.5v3.8h-10.1v-3.8h10.1Z"/>
    <path class="cls-1" d="M367.8,273.3v42h-3.8v-42h3.8ZM380.6,311.5v3.8h-10.1v-3.8h10.1Z"/>
    <path class="cls-1" d="M408.8,277.1h-23.2v-3.8h23.2v3.8ZM408.8,315.3h-23.2v-3.8h23.2v3.8ZM398.9,308.8h-3.8v-29.4h3.8v29.4Z"/>
    <path class="cls-1" d="M436.5,316c-5.6,0-11.2-2.2-15.4-6.4-8.3-8.3-8.3-22.2,0-30.5s22.1-8.5,30.5,0l-2.8,2.7c-6.9-6.8-18.1-6.8-25,0-6.8,7-6.8,18.1,0,25,7,6.9,18.1,6.9,25,0l2.8,2.8c-4.2,4.2-9.7,6.4-15.2,6.4h.1ZM453.6,305.3h-23.2v-3.8h23.2v3.8Z"/>
    <path class="cls-1" d="M459.8,315.3v-42h3.8v42h-3.8ZM477.1,316l-12.5-15.5,3-2.5,12.5,15.6-3,2.4ZM466.1,296.2v-3.8c4.1,0,7.6-3.4,7.6-7.6s-3.4-7.6-7.6-7.6v-3.9c6.3,0,11.5,5.2,11.5,11.5s-5.2,11.5-11.5,11.5h0Z"/>
    <path class="cls-1" d="M527.7,294.3v21h-3.8v-12.2c-3.4,7.6-11,12.9-19.8,12.9s-21.7-9.9-21.7-22,9.8-21.3,21.7-21.3,21.7,9.7,21.7,21.7h1.9,0ZM521.9,294.3c0-9.7-8-17.8-17.8-17.8s-17.8,8.1-17.8,17.8,8,17.8,17.8,17.8,17.8-8,17.8-17.8Z"/>
    <path class="cls-1" d="M539.7,315.3h-3.8v-42h3.8v42ZM542.4,296.2v-3.8c4.1,0,7.6-3.5,7.6-7.6s-3.5-7.6-7.6-7.6v-3.8c6.3,0,11.4,5.2,11.4,11.5s-5.1,11.4-11.4,11.4h0Z"/>
    <path class="cls-1" d="M563.8,315.3h-3.8v-42h3.8v42ZM576.7,296.2h-10.2v-3.8h10.2v3.8ZM583.2,315.3h-3.8v-42h3.8v42Z"/>
    <path class="cls-1" d="M595.2,288.9h12.8v3.8h-12.8v22.6h-3.8v-42h3.8v15.6ZM608,273.3v3.8h-10.1v-3.8h10.1ZM597.9,311.5h10.1v3.8h-10.1v-3.8Z"/>
    <path class="cls-1" d="M614.3,315.3v-42h3.8v42h-3.8ZM631.6,316l-12.5-15.5,3-2.5,12.5,15.6-3,2.4ZM620.6,296.2v-3.8c4.1,0,7.6-3.4,7.6-7.6s-3.4-7.6-7.6-7.6v-3.9c6.3,0,11.5,5.2,11.5,11.5s-5.2,11.5-11.5,11.5h0Z"/>
    <path class="cls-1" d="M697.6,316.4l-5.1-5.5c-3.8,3.2-8.6,5.1-13.9,5.1-11.9,0-21.7-9.9-21.7-22s9.8-21.3,21.7-21.3,21.7,9.7,21.7,21.7-1.9,10.2-5.1,14l5.2,5.6-2.7,2.5h-.1ZM689.9,308.1l-7.9-8.6,2.7-2.5,7.9,8.5c2.5-3.1,3.9-7,3.9-11.2,0-9.7-8-17.8-17.8-17.8s-17.8,8.1-17.8,17.8,8,17.8,17.8,17.8,8.2-1.5,11.3-4h-.1Z"/>
    <path class="cls-1" d="M733.2,304.3v11h-3.8v-9.8c-.6,5.8-5.5,10.3-11.4,10.3s-11.5-5.2-11.5-11.5v-31h3.8v31c0,4.3,3.5,7.7,7.7,7.7s7.7-3.4,7.7-7.7v-31h3.8v31h3.7Z"/>
    <path class="cls-1" d="M762.5,277.1h-23.2v-3.8h23.2v3.8ZM762.5,315.3h-23.2v-3.8h23.2v3.8ZM752.7,308.8h-3.8v-29.4h3.8v29.4Z"/>
    <path class="cls-1" d="M790.2,316c-5.6,0-11.2-2.2-15.4-6.4-8.3-8.3-8.3-22.2,0-30.5s22.1-8.5,30.5,0l-2.8,2.7c-6.9-6.8-18.1-6.8-25,0-6.8,7-6.8,18.1,0,25,7,6.9,18.1,6.9,25,0l2.8,2.8c-4.2,4.2-9.7,6.4-15.2,6.4h.1Z"/>
    <path class="cls-1" d="M816,315.3h-3.7v-42h3.7v42ZM838.8,313.7l-2.9,2.3-17.6-22.9,2.9-2.3,17.6,22.9ZM833.3,271.9l2.6,2.6-14.9,14.5-2.6-2.6,14.9-14.5Z"/>
    <path class="cls-1" d="M847,273.3v42h-3.8v-42h3.8ZM859.8,311.5v3.8h-10.1v-3.8h10.1Z"/>
    <path class="cls-1" d="M876.5,292.6l-14.9-17.3,2.9-2.6,14.9,17.4-2.9,2.5ZM885,273.3v31c0,6.4-5.1,11.5-11.5,11.5s-11.5-5.2-11.5-11.5h3.8c0,4.3,3.5,7.7,7.7,7.7s7.7-3.4,7.7-7.7v-31h3.8Z"/>
    <path class="cls-1" d="M25.5,360.9h12.8v3.8h-12.8v22.6h-3.8v-42h3.8v15.6ZM38.3,345.3v3.8h-10.1v-3.8h10.1Z"/>
    <path class="cls-1" d="M67.5,349.1h-23.2v-3.8h23.2v3.8ZM67.5,387.3h-23.2v-3.8h23.2v3.8ZM57.7,380.8h-3.8v-29.4h3.8v29.4Z"/>
    <path class="cls-1" d="M75.9,387.9l-3.4-1.7,22-41.6,3.4,1.8-22,41.5h0ZM80.5,361.4l-7.9-15.1,3.4-1.8,7.9,15.1-3.4,1.8ZM95,387.9l-8.2-15.1,3.4-1.8,8.1,15.1-3.3,1.7h0Z"/>
    <path class="cls-1" d="M107.1,360.9h12.8v3.8h-12.8v22.6h-3.8v-42h3.8v15.6ZM119.9,345.3v3.8h-10.1v-3.8h10.1ZM109.8,383.5h10.1v3.8h-10.1v-3.8Z"/>
    <path class="cls-1" d="M129.9,387.3h-3.8v-42h3.8v42ZM132.6,387.3v-3.9c9.5,0,17.2-7.7,17.2-17.1s-7.7-17.1-17.2-17.1v-3.9c11.6,0,21,9.5,21,21s-9.4,21-21,21Z"/>
    <path class="cls-1" d="M179.8,345.3h3.8v42h-3.8v-42ZM197.7,375.9c0,6.2-5.1,11.4-11.4,11.4v-3.8c4.1,0,7.6-3.5,7.6-7.6s-3.5-7.6-7.6-7.6v-3.9c4.1,0,7.6-3.5,7.6-7.6s-3.5-7.6-7.6-7.6v-3.8c6.3,0,11.4,5.2,11.4,11.5s-2,7.5-5.2,9.5c3.1,2,5.2,5.6,5.2,9.6h0Z"/>
    <path class="cls-1" d="M227.4,349.1h-23.2v-3.8h23.2v3.8ZM227.4,387.3h-23.2v-3.8h23.2v3.8ZM217.5,380.8h-3.8v-29.4h3.8v29.4Z"/>
    <path class="cls-1" d="M255.1,388c-5.6,0-11.2-2.2-15.4-6.4-8.3-8.3-8.3-22.2,0-30.5,8.5-8.5,22.1-8.5,30.5,0l-2.8,2.7c-6.9-6.8-18.1-6.8-25,0-6.8,7-6.8,18.1,0,25,7,6.9,18.1,6.9,25,0l2.8,2.8c-4.2,4.2-9.7,6.4-15.2,6.4h0ZM272.3,377.3h-23.2v-3.8h23.2v3.8Z"/>
    <path class="cls-1" d="M298.4,345.3h3.8v42h-3.8v-42ZM316.3,375.9c0,6.2-5.1,11.4-11.4,11.4v-3.8c4.1,0,7.6-3.5,7.6-7.6s-3.5-7.6-7.6-7.6v-3.9c4.1,0,7.6-3.5,7.6-7.6s-3.5-7.6-7.6-7.6v-3.8c6.3,0,11.4,5.2,11.4,11.5s-2,7.5-5.2,9.5c3.1,2,5.2,5.6,5.2,9.6h0Z"/>
    <path class="cls-1" d="M342.5,388c-11.9,0-21.7-9.9-21.7-22s9.8-21.3,21.7-21.3,21.7,9.7,21.7,21.7-9.7,21.7-21.7,21.7h0ZM342.5,348.5c-9.8,0-17.8,8.1-17.8,17.8s8,17.8,17.8,17.8,17.8-8,17.8-17.8-8-17.8-17.8-17.8Z"/>
    <path class="cls-1" d="M370.4,387.9l-3.4-1.7,22-41.6,3.4,1.8-22,41.5h0ZM375,361.4l-7.9-15.1,3.4-1.8,7.9,15.1-3.4,1.8ZM389.4,387.9l-8.2-15.1,3.4-1.8,8.1,15.1-3.3,1.7h0Z"/>
    <path class="cls-1" d="M401.6,360.9h12.8v3.8h-12.8v22.6h-3.8v-42h3.8v15.6ZM414.3,345.3v3.8h-10.1v-3.8h10.1ZM404.3,383.5h10.1v3.8h-10.1v-3.8Z"/>
    <path class="cls-1" d="M442.2,376.2c0,6.5-5.3,11.8-11.8,11.8s-11.8-5.3-11.8-11.8h3.8c0,4.4,3.6,8,8,8s8-3.6,8-8-3.6-8-8-8c-6.5,0-11.8-5.3-11.8-11.8s5.3-11.8,11.8-11.8,11.8,5.3,11.8,11.8h-3.8c0-4.4-3.6-8-8-8s-8,3.6-8,8,3.7,7.9,8,7.9c6.5,0,11.8,5.3,11.8,11.8h0Z"/>
    <path class="cls-1" d="M469.1,344.6l7,42.1-3.9.7-7.1-42.1,4-.7ZM486.5,344.6l3.7.8-9.1,41.9-3.7-.8,9.1-41.9ZM495.4,344.6l9.1,42.1-3.7.8-9.1-42.1,3.7-.8ZM512.1,344.7l4,.6-6.4,42-4-.5,6.4-42.1Z"/>
    <path class="cls-1" d="M544.3,349.1h-23.2v-3.8h23.2v3.8ZM544.3,387.3h-23.2v-3.8h23.2v3.8ZM534.5,380.8h-3.8v-29.4h3.8v29.4Z"/>
    <path class="cls-1" d="M572.5,349.1h-23.2v-3.8h23.2v3.8ZM562.8,387.3h-3.8v-35.5h3.8v35.5Z"/>
    <path class="cls-1" d="M581.3,387.3h-3.8v-42h3.8v42ZM594.2,368.2h-10.2v-3.8h10.2v3.8ZM600.7,387.3h-3.8v-42h3.8v42Z"/>
    <path class="cls-1" d="M64.8,438.3v21h-3.8v-12.2c-3.4,7.6-11,12.9-19.8,12.9s-21.7-9.9-21.7-22,9.8-21.3,21.7-21.3,21.7,9.7,21.7,21.7h1.9ZM59.1,438.3c0-9.7-8-17.8-17.8-17.8s-17.8,8.1-17.8,17.8,8,17.8,17.8,17.8,17.8-8,17.8-17.8Z"/>
    <path class="cls-1" d="M76.9,417.3v42h-3.8v-42h3.8ZM87.6,460l-9.2-42.7,3.7-.8,9.3,42.7-3.7.8h-.1ZM96.5,460l-3.7-.8,9.3-42.7,3.7.8-9.2,42.7h-.1ZM110.8,417.3v42h-3.8v-42h3.8Z"/>
    <path class="cls-1" d="M162.2,438.3v21h-3.8v-12.2c-3.4,7.6-11,12.9-19.8,12.9s-21.7-9.9-21.7-22,9.8-21.3,21.7-21.3,21.7,9.7,21.7,21.7h1.9ZM156.5,438.3c0-9.7-8-17.8-17.8-17.8s-17.8,8.1-17.8,17.8,8,17.8,17.8,17.8,17.8-8,17.8-17.8Z"/>
    <path class="cls-1" d="M170.2,459.9l-3.5-2.2,23.5-41.2,3.6,2.1-23.6,41.2h0ZM186.2,421.1h-16.9v-3.8h16.9v3.8ZM191.3,459.3h-16.9v-3.8h16.9v3.8Z"/>
    <path class="cls-1" d="M221.4,421.1h-23.2v-3.8h23.2v3.8ZM221.4,459.3h-23.2v-3.8h23.2v3.8ZM211.5,452.8h-3.8v-29.4h3.8v29.4Z"/>
    <path class="cls-1" d="M229.7,459.3v-42h3.8v42h-3.8ZM246.9,454.2l-12.2-30.9,3.5-1.4,12.2,30.8-3.6,1.4h.1ZM251.9,459.3v-42h3.8v42h-3.8Z"/>
    <path class="cls-1" d="M283.4,460c-5.6,0-11.2-2.2-15.4-6.4-8.3-8.3-8.3-22.2,0-30.5s22.1-8.5,30.5,0l-2.8,2.7c-6.9-6.8-18.1-6.8-25,0-6.8,7-6.8,18.1,0,25,7,6.9,18.1,6.9,25,0l2.8,2.8c-4.2,4.2-9.7,6.4-15.2,6.4h.1ZM300.5,449.3h-23.2v-3.8h23.2v3.8Z"/>
    <path class="cls-1" d="M330.5,432.9h12.8v3.8h-12.8v22.6h-3.8v-42h3.8v15.6ZM343.2,417.3v3.8h-10.1v-3.8h10.1Z"/>
    <path class="cls-1" d="M372.5,421.1h-23.2v-3.8h23.2v3.8ZM372.5,459.3h-23.2v-3.8h23.2v3.8ZM362.7,452.8h-3.8v-29.4h3.8v29.4Z"/>
    <path class="cls-1" d="M380.8,459.3v-42h3.8v42h-3.8ZM398,454.2l-12.2-30.9,3.5-1.4,12.2,30.8-3.6,1.4h.1ZM403,459.3v-42h3.8v42h-3.8Z"/>
    <path class="cls-1" d="M434.5,460c-5.6,0-11.2-2.2-15.4-6.4-8.3-8.3-8.3-22.2,0-30.5s22.1-8.5,30.5,0l-2.8,2.7c-6.9-6.8-18.1-6.8-25,0-6.8,7-6.8,18.1,0,25,7,6.9,18.1,6.9,25,0l2.8,2.8c-4.2,4.2-9.7,6.4-15.2,6.4h.1Z"/>
    <path class="cls-1" d="M460.3,459.3h-3.8v-42h3.8v42ZM473.2,440.2h-10.2v-3.8h10.2v3.8ZM479.7,459.3h-3.8v-42h3.8v42Z"/>
    <path class="cls-1" d="M546.6,460.4l-5.1-5.5c-3.8,3.2-8.6,5.1-13.9,5.1-11.9,0-21.7-9.9-21.7-22s9.8-21.3,21.7-21.3,21.7,9.7,21.7,21.7-1.9,10.2-5.1,14l5.2,5.6-2.7,2.5h-.1ZM538.8,452.1l-7.9-8.6,2.7-2.5,7.9,8.5c2.5-3.1,3.9-7,3.9-11.2,0-9.7-8-17.8-17.8-17.8s-17.8,8.1-17.8,17.8,8,17.8,17.8,17.8,8.2-1.5,11.3-4h-.1Z"/>
    <path class="cls-1" d="M582.1,448.3v11h-3.8v-9.8c-.6,5.8-5.5,10.3-11.4,10.3s-11.5-5.2-11.5-11.5v-31h3.8v31c0,4.3,3.5,7.7,7.7,7.7s7.7-3.4,7.7-7.7v-31h3.8v31h3.7Z"/>
    <path class="cls-1" d="M611.4,421.1h-23.2v-3.8h23.2v3.8ZM611.4,459.3h-23.2v-3.8h23.2v3.8ZM601.6,452.8h-3.8v-29.4h3.8v29.4Z"/>
    <path class="cls-1" d="M623.5,417.3v42h-3.8v-42h3.8ZM636.3,455.5v3.8h-10.1v-3.8h10.1Z"/>
    <path class="cls-1" d="M645.1,417.3v42h-3.8v-42h3.8ZM657.9,455.5v3.8h-10.1v-3.8h10.1Z"/>
    <path class="cls-1" d="M684.5,448.2c0,6.5-5.3,11.8-11.8,11.8s-11.8-5.3-11.8-11.8h3.8c0,4.4,3.6,8,8,8s8-3.6,8-8-3.6-8-8-8c-6.5,0-11.8-5.3-11.8-11.8s5.3-11.8,11.8-11.8,11.8,5.3,11.8,11.8h-3.8c0-4.4-3.6-8-8-8s-8,3.6-8,8,3.7,7.9,8,7.9c6.5,0,11.8,5.3,11.8,11.8h0Z"/>
  </g>
  <g>
    <path class="cls-1" d="M32.8,224.9l-16.5-10.1L126,22.7l16.8,9.8L32.8,224.9ZM107.5,43.7H28.6v-17.6h79v17.6h0ZM131,222.1H52.4v-17.6h78.7v17.6h-.1Z"/>
    <path class="cls-1" d="M220.9,116l-69.7-80.9,13.7-12,69.7,81.2-13.7,11.8h0ZM260.7,26.1v144.8c0,29.7-23.8,53.8-53.5,53.8s-53.5-24.1-53.5-53.8h17.6c0,19.9,16.2,35.8,35.8,35.8s35.8-16,35.8-35.8V26.1h17.8Z"/>
    <path class="cls-1" d="M324.5,23.3l17.4,3.6-43.4,198.2-17.1-3.6,43.1-198.2h0ZM368.8,163.3h-47v-17.6h47v17.6ZM366,23.3l43.1,198.2-17.1,3.6-43.4-198.2s17.4-3.6,17.4-3.6Z"/>
    <path class="cls-1" d="M429.8,26.1h17.6v196h-17.6V26.1ZM513.2,168.9c0,29.1-23.8,53.2-53.2,53.2v-17.6c19.3,0,35.6-16.2,35.6-35.6s-16.2-35.6-35.6-35.6v-18.2c19.3,0,35.6-16.2,35.6-35.6s-16.2-35.6-35.6-35.6v-17.9c29.4,0,53.2,24.1,53.2,53.5s-9.5,35-24.1,44.5c14.6,9.5,24.1,26,24.1,44.8h0Z"/>
    <path class="cls-1" d="M561.4,26.1v196h-17.6V26.1h17.6ZM621,204.5v17.6h-47v-17.6h47Z"/>
    <path class="cls-1" d="M752.6,43.7h-108.1v-17.6h108.1v17.6ZM752.6,222.1h-108.1v-17.6h108.1v17.6ZM706.7,191.9h-17.6V54.7h17.6v137.2Z"/>
    <path class="cls-1" d="M808.6,222.1h-17.4V26.1h17.4v196ZM915,214.5l-13.7,10.6-82.3-107,13.7-10.6,82.3,107ZM889.6,19.7l12,12.3-69.7,67.5-12-12.3s69.7-67.5,69.7-67.5Z"/>
  </g>
</svg>